<?xml version="1.0" encoding="UTF-8" standalone="no"?>
<!DOCTYPE svg PUBLIC "-//W3C//DTD SVG 1.1//EN"
 "http://www.w3.org/Graphics/SVG/1.1/DTD/svg11.dtd">
<!-- Generated by graphviz version 2.43.0 (0)
 -->
<!-- Title: %3 Pages: 1 -->
<svg width="419pt" height="564pt"
 viewBox="0.00 0.00 418.50 564.00" xmlns="http://www.w3.org/2000/svg" xmlns:xlink="http://www.w3.org/1999/xlink">
<g id="graph0" class="graph" transform="scale(1 1) rotate(0) translate(4 560)">
<title>%3</title>
<polygon fill="white" stroke="transparent" points="-4,4 -4,-560 414.5,-560 414.5,4 -4,4"/>
<!-- __start__ -->
<g id="node1" class="node">
<title>__start__</title>
<ellipse fill="black" stroke="black" cx="135.5" cy="-538" rx="7.2" ry="7.2"/>
</g>
<!-- IDLE -->
<g id="node2" class="node">
<title>IDLE</title>
<path fill="none" stroke="black" d="M207.5,-473C207.5,-473 177.5,-473 177.5,-473 171.5,-473 165.5,-467 165.5,-461 165.5,-461 165.5,-449 165.5,-449 165.5,-443 171.5,-437 177.5,-437 177.5,-437 207.5,-437 207.5,-437 213.5,-437 219.5,-443 219.5,-449 219.5,-449 219.5,-461 219.5,-461 219.5,-467 213.5,-473 207.5,-473"/>
<text text-anchor="middle" x="192.5" y="-451.3" font-family="Times,serif" font-size="14.00">IDLE</text>
</g>
<!-- __start__&#45;&gt;IDLE -->
<g id="edge1" class="edge">
<title>__start__&#45;&gt;IDLE</title>
<path fill="none" stroke="black" d="M139.24,-531.69C146.31,-521.64 162.04,-499.29 174.58,-481.47"/>
<polygon fill="black" stroke="black" points="177.54,-483.35 180.43,-473.15 171.81,-479.32 177.54,-483.35"/>
</g>
<!-- VALIDATING_CHECKPOINT -->
<g id="node3" class="node">
<title>VALIDATING_CHECKPOINT</title>
<path fill="none" stroke="black" d="M203,-390C203,-390 12,-390 12,-390 6,-390 0,-384 0,-378 0,-378 0,-366 0,-366 0,-360 6,-354 12,-354 12,-354 203,-354 203,-354 209,-354 215,-360 215,-366 215,-366 215,-378 215,-378 215,-384 209,-390 203,-390"/>
<text text-anchor="middle" x="107.5" y="-368.3" font-family="Times,serif" font-size="14.00">VALIDATING_CHECKPOINT</text>
</g>
<!-- IDLE&#45;&gt;VALIDATING_CHECKPOINT -->
<g id="edge2" class="edge">
<title>IDLE&#45;&gt;VALIDATING_CHECKPOINT</title>
<path fill="none" stroke="black" d="M174.47,-436.82C162.42,-425.33 146.37,-410.04 133.01,-397.31"/>
<polygon fill="black" stroke="black" points="135.15,-394.52 125.5,-390.15 130.33,-399.59 135.15,-394.52"/>
<text text-anchor="middle" x="195" y="-411" font-family="Times,serif" font-size="10.00">LOCK_INTENT</text>
</g>
<!-- SELECTING_WITNESSES -->
<g id="node4" class="node">
<title>SELECTING_WITNESSES</title>
<path fill="none" stroke="black" d="M196,-296C196,-296 19,-296 19,-296 13,-296 7,-290 7,-284 7,-284 7,-272 7,-272 7,-266 13,-260 19,-260 19,-260 196,-260 196,-260 202,-260 208,-266 208,-272 208,-272 208,-284 208,-284 208,-290 202,-296 196,-296"/>
<text text-anchor="middle" x="107.5" y="-274.3" font-family="Times,serif" font-size="14.00">SELECTING_WITNESSES</text>
</g>
<!-- VALIDATING_CHECKPOINT&#45;&gt;SELECTING_WITNESSES -->
<g id="edge3" class="edge">
<title>VALIDATING_CHECKPOINT&#45;&gt;SELECTING_WITNESSES</title>
<path fill="none" stroke="black" d="M87.3,-353.93C82.51,-348.72 78.06,-342.6 75.5,-336 71.96,-326.89 71.96,-323.11 75.5,-314 76.86,-310.49 78.76,-307.12 80.95,-303.95"/>
<polygon fill="black" stroke="black" points="83.75,-306.06 87.3,-296.07 78.3,-301.67 83.75,-306.06"/>
<text text-anchor="middle" x="169" y="-328" font-family="Times,serif" font-size="10.00">auto</text>
<text text-anchor="middle" x="169" y="-317" font-family="Times,serif" font-size="10.00">[CHAIN_CONTAINS_HASH (my_c...]</text>
</g>
<!-- SENDING_COMMITMENT -->
<g id="node6" class="node">
<title>SENDING_COMMITMENT</title>
<path fill="none" stroke="black" d="M235.5,-213C235.5,-213 53.5,-213 53.5,-213 47.5,-213 41.5,-207 41.5,-201 41.5,-201 41.5,-189 41.5,-189 41.5,-183 47.5,-177 53.5,-177 53.5,-177 235.5,-177 235.5,-177 241.5,-177 247.5,-183 247.5,-189 247.5,-189 247.5,-201 247.5,-201 247.5,-207 241.5,-213 235.5,-213"/>
<text text-anchor="middle" x="144.5" y="-191.3" font-family="Times,serif" font-size="14.00">SENDING_COMMITMENT</text>
</g>
<!-- SELECTING_WITNESSES&#45;&gt;SENDING_COMMITMENT -->
<g id="edge5" class="edge">
<title>SELECTING_WITNESSES&#45;&gt;SENDING_COMMITMENT</title>
<path fill="none" stroke="black" d="M115.35,-259.82C120.3,-248.98 126.8,-234.74 132.41,-222.47"/>
<polygon fill="black" stroke="black" points="135.69,-223.7 136.66,-213.15 129.33,-220.79 135.69,-223.7"/>
<text text-anchor="middle" x="140" y="-234" font-family="Times,serif" font-size="10.00">auto</text>
</g>
<!-- SENDING_REJECTION -->
<g id="node5" class="node">
<title>SENDING_REJECTION</title>
<path fill="none" stroke="black" d="M328.5,-556C328.5,-556 172.5,-556 172.5,-556 166.5,-556 160.5,-550 160.5,-544 160.5,-544 160.5,-532 160.5,-532 160.5,-526 166.5,-520 172.5,-520 172.5,-520 328.5,-520 328.5,-520 334.5,-520 340.5,-526 340.5,-532 340.5,-532 340.5,-544 340.5,-544 340.5,-550 334.5,-556 328.5,-556"/>
<text text-anchor="middle" x="250.5" y="-534.3" font-family="Times,serif" font-size="14.00">SENDING_REJECTION</text>
</g>
<!-- SENDING_REJECTION&#45;&gt;IDLE -->
<g id="edge4" class="edge">
<title>SENDING_REJECTION&#45;&gt;IDLE</title>
<path fill="none" stroke="black" d="M238.2,-519.82C230.2,-508.65 219.63,-493.9 210.68,-481.38"/>
<polygon fill="black" stroke="black" points="213.45,-479.25 204.78,-473.15 207.76,-483.32 213.45,-479.25"/>
<text text-anchor="middle" x="236" y="-494" font-family="Times,serif" font-size="10.00">auto</text>
</g>
<!-- WAITING_FOR_LOCK -->
<g id="node7" class="node">
<title>WAITING_FOR_LOCK</title>
<path fill="none" stroke="black" d="M284,-130C284,-130 139,-130 139,-130 133,-130 127,-124 127,-118 127,-118 127,-106 127,-106 127,-100 133,-94 139,-94 139,-94 284,-94 284,-94 290,-94 296,-100 296,-106 296,-106 296,-118 296,-118 296,-124 290,-130 284,-130"/>
<text text-anchor="middle" x="211.5" y="-108.3" font-family="Times,serif" font-size="14.00">WAITING_FOR_LOCK</text>
</g>
<!-- SENDING_COMMITMENT&#45;&gt;WAITING_FOR_LOCK -->
<g id="edge6" class="edge">
<title>SENDING_COMMITMENT&#45;&gt;WAITING_FOR_LOCK</title>
<path fill="none" stroke="black" d="M158.71,-176.82C168.04,-165.55 180.39,-150.61 190.8,-138.02"/>
<polygon fill="black" stroke="black" points="193.63,-140.09 197.31,-130.15 188.24,-135.63 193.63,-140.09"/>
<text text-anchor="middle" x="194" y="-151" font-family="Times,serif" font-size="10.00">auto</text>
</g>
<!-- WAITING_FOR_LOCK&#45;&gt;IDLE -->
<g id="edge8" class="edge">
<title>WAITING_FOR_LOCK&#45;&gt;IDLE</title>
<path fill="none" stroke="black" d="M236.82,-130.13C255.07,-144.72 276.5,-167.5 276.5,-194 276.5,-373 276.5,-373 276.5,-373 276.5,-401.44 251.25,-423.04 228.43,-436.76"/>
<polygon fill="black" stroke="black" points="226.51,-433.82 219.54,-441.8 229.97,-439.91 226.51,-433.82"/>
<text text-anchor="middle" x="343.5" y="-275.5" font-family="Times,serif" font-size="10.00">timeout(LOCK_TIMEOUT)</text>
</g>
<!-- SERVICE_PHASE -->
<g id="node8" class="node">
<title>SERVICE_PHASE</title>
<path fill="none" stroke="black" d="M270,-36C270,-36 153,-36 153,-36 147,-36 141,-30 141,-24 141,-24 141,-12 141,-12 141,-6 147,0 153,0 153,0 270,0 270,0 276,0 282,-6 282,-12 282,-12 282,-24 282,-24 282,-30 276,-36 270,-36"/>
<text text-anchor="middle" x="211.5" y="-14.3" font-family="Times,serif" font-size="14.00">SERVICE_PHASE</text>
</g>
<!-- WAITING_FOR_LOCK&#45;&gt;SERVICE_PHASE -->
<g id="edge7" class="edge">
<title>WAITING_FOR_LOCK&#45;&gt;SERVICE_PHASE</title>
<path fill="none" stroke="black" d="M211.5,-93.7C211.5,-80.46 211.5,-61.95 211.5,-46.66"/>
<polygon fill="black" stroke="black" points="215,-46.23 211.5,-36.23 208,-46.23 215,-46.23"/>
<text text-anchor="middle" x="299.5" y="-68" font-family="Times,serif" font-size="10.00">BALANCE_UPDATE_BROADCAST</text>
<text text-anchor="middle" x="299.5" y="-57" font-family="Times,serif" font-size="10.00">[message.lock_result.sessi...]</text>
</g>
</g>
</svg>
