<?xml version="1.0" encoding="UTF-8" standalone="no"?>
<!DOCTYPE svg PUBLIC "-//W3C//DTD SVG 1.1//EN"
 "http://www.w3.org/Graphics/SVG/1.1/DTD/svg11.dtd">
<!-- Generated by graphviz version 2.43.0 (0)
 -->
<!-- Title: %3 Pages: 1 -->
<svg width="399pt" height="532pt"
 viewBox="0.00 0.00 398.50 532.40" xmlns="http://www.w3.org/2000/svg" xmlns:xlink="http://www.w3.org/1999/xlink">
<g id="graph0" class="graph" transform="scale(1 1) rotate(0) translate(4 528.4)">
<title>%3</title>
<polygon fill="white" stroke="transparent" points="-4,4 -4,-528.4 394.5,-528.4 394.5,4 -4,4"/>
<!-- __start__ -->
<g id="node1" class="node">
<title>__start__</title>
<ellipse fill="black" stroke="black" cx="188.5" cy="-517.2" rx="7.2" ry="7.2"/>
</g>
<!-- IDLE -->
<g id="node2" class="node">
<title>IDLE</title>
<path fill="none" stroke="black" d="M203.5,-473C203.5,-473 173.5,-473 173.5,-473 167.5,-473 161.5,-467 161.5,-461 161.5,-461 161.5,-449 161.5,-449 161.5,-443 167.5,-437 173.5,-437 173.5,-437 203.5,-437 203.5,-437 209.5,-437 215.5,-443 215.5,-449 215.5,-449 215.5,-461 215.5,-461 215.5,-467 209.5,-473 203.5,-473"/>
<text text-anchor="middle" x="188.5" y="-451.3" font-family="Times,serif" font-size="14.00">IDLE</text>
</g>
<!-- __start__&#45;&gt;IDLE -->
<g id="edge1" class="edge">
<title>__start__&#45;&gt;IDLE</title>
<path fill="none" stroke="black" d="M188.5,-509.76C188.5,-503.39 188.5,-493.2 188.5,-483.39"/>
<polygon fill="black" stroke="black" points="192,-483.1 188.5,-473.1 185,-483.1 192,-483.1"/>
</g>
<!-- VALIDATING_CHECKPOINT -->
<g id="node3" class="node">
<title>VALIDATING_CHECKPOINT</title>
<path fill="none" stroke="black" d="M203,-390C203,-390 12,-390 12,-390 6,-390 0,-384 0,-378 0,-378 0,-366 0,-366 0,-360 6,-354 12,-354 12,-354 203,-354 203,-354 209,-354 215,-360 215,-366 215,-366 215,-378 215,-378 215,-384 209,-390 203,-390"/>
<text text-anchor="middle" x="107.5" y="-368.3" font-family="Times,serif" font-size="14.00">VALIDATING_CHECKPOINT</text>
</g>
<!-- IDLE&#45;&gt;VALIDATING_CHECKPOINT -->
<g id="edge2" class="edge">
<title>IDLE&#45;&gt;VALIDATING_CHECKPOINT</title>
<path fill="none" stroke="black" d="M171.32,-436.82C159.83,-425.33 144.54,-410.04 131.81,-397.31"/>
<polygon fill="black" stroke="black" points="134.2,-394.75 124.65,-390.15 129.25,-399.7 134.2,-394.75"/>
<text text-anchor="middle" x="193" y="-411" font-family="Times,serif" font-size="10.00">LOCK_INTENT</text>
</g>
<!-- SELECTING_WITNESSES -->
<g id="node4" class="node">
<title>SELECTING_WITNESSES</title>
<path fill="none" stroke="black" d="M195,-296C195,-296 18,-296 18,-296 12,-296 6,-290 6,-284 6,-284 6,-272 6,-272 6,-266 12,-260 18,-260 18,-260 195,-260 195,-260 201,-260 207,-266 207,-272 207,-272 207,-284 207,-284 207,-290 201,-296 195,-296"/>
<text text-anchor="middle" x="106.5" y="-274.3" font-family="Times,serif" font-size="14.00">SELECTING_WITNESSES</text>
</g>
<!-- VALIDATING_CHECKPOINT&#45;&gt;SELECTING_WITNESSES -->
<g id="edge3" class="edge">
<title>VALIDATING_CHECKPOINT&#45;&gt;SELECTING_WITNESSES</title>
<path fill="none" stroke="black" d="M99.77,-353.9C97.62,-348.31 95.58,-342 94.5,-336 92.77,-326.38 92.89,-323.64 94.5,-314 94.95,-311.3 95.58,-308.53 96.32,-305.79"/>
<polygon fill="black" stroke="black" points="99.69,-306.74 99.36,-296.15 93.02,-304.64 99.69,-306.74"/>
<text text-anchor="middle" x="168.5" y="-328" font-family="Times,serif" font-size="10.00">auto</text>
<text text-anchor="middle" x="168.5" y="-317" font-family="Times,serif" font-size="10.00">[checkpoint_exists_in_chai...]</text>
</g>
<!-- SENDING_COMMITMENT -->
<g id="node5" class="node">
<title>SENDING_COMMITMENT</title>
<path fill="none" stroke="black" d="M208.5,-213C208.5,-213 26.5,-213 26.5,-213 20.5,-213 14.5,-207 14.5,-201 14.5,-201 14.5,-189 14.5,-189 14.5,-183 20.5,-177 26.5,-177 26.5,-177 208.5,-177 208.5,-177 214.5,-177 220.5,-183 220.5,-189 220.5,-189 220.5,-201 220.5,-201 220.5,-207 214.5,-213 208.5,-213"/>
<text text-anchor="middle" x="117.5" y="-191.3" font-family="Times,serif" font-size="14.00">SENDING_COMMITMENT</text>
</g>
<!-- SELECTING_WITNESSES&#45;&gt;SENDING_COMMITMENT -->
<g id="edge4" class="edge">
<title>SELECTING_WITNESSES&#45;&gt;SENDING_COMMITMENT</title>
<path fill="none" stroke="black" d="M108.83,-259.82C110.28,-249.19 112.16,-235.31 113.81,-223.2"/>
<polygon fill="black" stroke="black" points="117.29,-223.53 115.17,-213.15 110.36,-222.59 117.29,-223.53"/>
<text text-anchor="middle" x="125" y="-234" font-family="Times,serif" font-size="10.00">auto</text>
</g>
<!-- WAITING_FOR_LOCK -->
<g id="node6" class="node">
<title>WAITING_FOR_LOCK</title>
<path fill="none" stroke="black" d="M260,-130C260,-130 115,-130 115,-130 109,-130 103,-124 103,-118 103,-118 103,-106 103,-106 103,-100 109,-94 115,-94 115,-94 260,-94 260,-94 266,-94 272,-100 272,-106 272,-106 272,-118 272,-118 272,-124 266,-130 260,-130"/>
<text text-anchor="middle" x="187.5" y="-108.3" font-family="Times,serif" font-size="14.00">WAITING_FOR_LOCK</text>
</g>
<!-- SENDING_COMMITMENT&#45;&gt;WAITING_FOR_LOCK -->
<g id="edge5" class="edge">
<title>SENDING_COMMITMENT&#45;&gt;WAITING_FOR_LOCK</title>
<path fill="none" stroke="black" d="M132.35,-176.82C142.09,-165.55 155,-150.61 165.87,-138.02"/>
<polygon fill="black" stroke="black" points="168.79,-140.01 172.68,-130.15 163.49,-135.43 168.79,-140.01"/>
<text text-anchor="middle" x="169" y="-151" font-family="Times,serif" font-size="10.00">auto</text>
</g>
<!-- WAITING_FOR_LOCK&#45;&gt;IDLE -->
<g id="edge7" class="edge">
<title>WAITING_FOR_LOCK&#45;&gt;IDLE</title>
<path fill="none" stroke="black" d="M214.77,-130.07C234.06,-144.48 256.5,-167.03 256.5,-194 256.5,-373 256.5,-373 256.5,-373 256.5,-395.29 250.44,-401.6 236.5,-419 232.78,-423.64 228.3,-427.97 223.6,-431.88"/>
<polygon fill="black" stroke="black" points="221.34,-429.2 215.55,-438.07 225.61,-434.75 221.34,-429.2"/>
<text text-anchor="middle" x="323.5" y="-275.5" font-family="Times,serif" font-size="10.00">timeout(LOCK_TIMEOUT)</text>
</g>
<!-- SERVICE_PHASE -->
<g id="node7" class="node">
<title>SERVICE_PHASE</title>
<path fill="none" stroke="black" d="M246,-36C246,-36 129,-36 129,-36 123,-36 117,-30 117,-24 117,-24 117,-12 117,-12 117,-6 123,0 129,0 129,0 246,0 246,0 252,0 258,-6 258,-12 258,-12 258,-24 258,-24 258,-30 252,-36 246,-36"/>
<text text-anchor="middle" x="187.5" y="-14.3" font-family="Times,serif" font-size="14.00">SERVICE_PHASE</text>
</g>
<!-- WAITING_FOR_LOCK&#45;&gt;SERVICE_PHASE -->
<g id="edge6" class="edge">
<title>WAITING_FOR_LOCK&#45;&gt;SERVICE_PHASE</title>
<path fill="none" stroke="black" d="M187.5,-93.7C187.5,-80.46 187.5,-61.95 187.5,-46.66"/>
<polygon fill="black" stroke="black" points="191,-46.23 187.5,-36.23 184,-46.23 191,-46.23"/>
<text text-anchor="middle" x="275.5" y="-68" font-family="Times,serif" font-size="10.00">BALANCE_UPDATE_BROADCAST</text>
<text text-anchor="middle" x="275.5" y="-57" font-family="Times,serif" font-size="10.00">[message.lock_result.sessi...]</text>
</g>
</g>
</svg>
