<?xml version="1.0" encoding="UTF-8" standalone="no"?>
<!DOCTYPE svg PUBLIC "-//W3C//DTD SVG 1.1//EN"
 "http://www.w3.org/Graphics/SVG/1.1/DTD/svg11.dtd">
<!-- Generated by graphviz version 2.43.0 (0)
 -->
<!-- Title: %3 Pages: 1 -->
<svg width="728pt" height="1229pt"
 viewBox="0.00 0.00 728.00 1229.40" xmlns="http://www.w3.org/2000/svg" xmlns:xlink="http://www.w3.org/1999/xlink">
<g id="graph0" class="graph" transform="scale(1 1) rotate(0) translate(4 1225.4)">
<title>%3</title>
<polygon fill="white" stroke="transparent" points="-4,4 -4,-1225.4 724,-1225.4 724,4 -4,4"/>
<!-- __start__ -->
<g id="node1" class="node">
<title>__start__</title>
<ellipse fill="black" stroke="black" cx="157" cy="-1214.2" rx="7.2" ry="7.2"/>
</g>
<!-- IDLE -->
<g id="node2" class="node">
<title>IDLE</title>
<path fill="none" stroke="black" d="M172,-1170C172,-1170 142,-1170 142,-1170 136,-1170 130,-1164 130,-1158 130,-1158 130,-1146 130,-1146 130,-1140 136,-1134 142,-1134 142,-1134 172,-1134 172,-1134 178,-1134 184,-1140 184,-1146 184,-1146 184,-1158 184,-1158 184,-1164 178,-1170 172,-1170"/>
<text text-anchor="middle" x="157" y="-1148.3" font-family="Times,serif" font-size="14.00">IDLE</text>
</g>
<!-- __start__&#45;&gt;IDLE -->
<g id="edge1" class="edge">
<title>__start__&#45;&gt;IDLE</title>
<path fill="none" stroke="black" d="M157,-1206.76C157,-1200.39 157,-1190.2 157,-1180.39"/>
<polygon fill="black" stroke="black" points="160.5,-1180.1 157,-1170.1 153.5,-1180.1 160.5,-1180.1"/>
</g>
<!-- SENDING_LOCK_INTENT -->
<g id="node4" class="node">
<title>SENDING_LOCK_INTENT</title>
<path fill="none" stroke="black" d="M245.5,-1076C245.5,-1076 68.5,-1076 68.5,-1076 62.5,-1076 56.5,-1070 56.5,-1064 56.5,-1064 56.5,-1052 56.5,-1052 56.5,-1046 62.5,-1040 68.5,-1040 68.5,-1040 245.5,-1040 245.5,-1040 251.5,-1040 257.5,-1046 257.5,-1052 257.5,-1052 257.5,-1064 257.5,-1064 257.5,-1070 251.5,-1076 245.5,-1076"/>
<text text-anchor="middle" x="157" y="-1054.3" font-family="Times,serif" font-size="14.00">SENDING_LOCK_INTENT</text>
</g>
<!-- IDLE&#45;&gt;SENDING_LOCK_INTENT -->
<g id="edge2" class="edge">
<title>IDLE&#45;&gt;SENDING_LOCK_INTENT</title>
<path fill="none" stroke="black" d="M157,-1133.7C157,-1120.46 157,-1101.95 157,-1086.66"/>
<polygon fill="black" stroke="black" points="160.5,-1086.23 157,-1076.23 153.5,-1086.23 160.5,-1086.23"/>
<text text-anchor="middle" x="234" y="-1108" font-family="Times,serif" font-size="10.00">initiate_lock</text>
<text text-anchor="middle" x="234" y="-1097" font-family="Times,serif" font-size="10.00">[provider_chain_checkpoint...]</text>
</g>
<!-- FAILED -->
<g id="node3" class="node">
<title>FAILED</title>
<path fill="none" stroke="black" stroke-width="2" d="M203.5,-462C203.5,-462 156.5,-462 156.5,-462 150.5,-462 144.5,-456 144.5,-450 144.5,-450 144.5,-438 144.5,-438 144.5,-432 150.5,-426 156.5,-426 156.5,-426 203.5,-426 203.5,-426 209.5,-426 215.5,-432 215.5,-438 215.5,-438 215.5,-450 215.5,-450 215.5,-456 209.5,-462 203.5,-462"/>
<text text-anchor="middle" x="180" y="-440.3" font-family="Times,serif" font-size="14.00">FAILED</text>
</g>
<!-- WAITING_FOR_WITNESS_COMMITMENT -->
<g id="node5" class="node">
<title>WAITING_FOR_WITNESS_COMMITMENT</title>
<path fill="none" stroke="black" d="M302,-993C302,-993 12,-993 12,-993 6,-993 0,-987 0,-981 0,-981 0,-969 0,-969 0,-963 6,-957 12,-957 12,-957 302,-957 302,-957 308,-957 314,-963 314,-969 314,-969 314,-981 314,-981 314,-987 308,-993 302,-993"/>
<text text-anchor="middle" x="157" y="-971.3" font-family="Times,serif" font-size="14.00">WAITING_FOR_WITNESS_COMMITMENT</text>
</g>
<!-- SENDING_LOCK_INTENT&#45;&gt;WAITING_FOR_WITNESS_COMMITMENT -->
<g id="edge3" class="edge">
<title>SENDING_LOCK_INTENT&#45;&gt;WAITING_FOR_WITNESS_COMMITMENT</title>
<path fill="none" stroke="black" d="M157,-1039.82C157,-1029.19 157,-1015.31 157,-1003.2"/>
<polygon fill="black" stroke="black" points="160.5,-1003.15 157,-993.15 153.5,-1003.15 160.5,-1003.15"/>
<text text-anchor="middle" x="168.5" y="-1014" font-family="Times,serif" font-size="10.00">auto</text>
</g>
<!-- WAITING_FOR_WITNESS_COMMITMENT&#45;&gt;FAILED -->
<g id="edge5" class="edge">
<title>WAITING_FOR_WITNESS_COMMITMENT&#45;&gt;FAILED</title>
<path fill="none" stroke="black" d="M88.13,-956.88C57.83,-944.82 29,-924.95 29,-893 29,-893 29,-893 29,-537 29,-487.06 89.99,-463.44 134.45,-452.85"/>
<polygon fill="black" stroke="black" points="135.22,-456.27 144.22,-450.67 133.69,-449.43 135.22,-456.27"/>
<text text-anchor="middle" x="75" y="-701.5" font-family="Times,serif" font-size="10.00">LOCK_REJECTED</text>
</g>
<!-- WAITING_FOR_WITNESS_COMMITMENT&#45;&gt;FAILED -->
<g id="edge6" class="edge">
<title>WAITING_FOR_WITNESS_COMMITMENT&#45;&gt;FAILED</title>
<path fill="none" stroke="black" d="M157,-956.93C157,-940.54 157,-915.08 157,-893 157,-893 157,-893 157,-537 157,-514.6 163.5,-490.02 169.58,-471.91"/>
<polygon fill="black" stroke="black" points="172.94,-472.91 172.97,-462.31 166.34,-470.58 172.94,-472.91"/>
<text text-anchor="middle" x="277.5" y="-701.5" font-family="Times,serif" font-size="10.00">timeout(WITNESS_COMMITMENT_TIMEOUT)</text>
</g>
<!-- VERIFYING_PROVIDER_CHAIN -->
<g id="node6" class="node">
<title>VERIFYING_PROVIDER_CHAIN</title>
<path fill="none" stroke="black" d="M515,-910C515,-910 297,-910 297,-910 291,-910 285,-904 285,-898 285,-898 285,-886 285,-886 285,-880 291,-874 297,-874 297,-874 515,-874 515,-874 521,-874 527,-880 527,-886 527,-886 527,-898 527,-898 527,-904 521,-910 515,-910"/>
<text text-anchor="middle" x="406" y="-888.3" font-family="Times,serif" font-size="14.00">VERIFYING_PROVIDER_CHAIN</text>
</g>
<!-- WAITING_FOR_WITNESS_COMMITMENT&#45;&gt;VERIFYING_PROVIDER_CHAIN -->
<g id="edge4" class="edge">
<title>WAITING_FOR_WITNESS_COMMITMENT&#45;&gt;VERIFYING_PROVIDER_CHAIN</title>
<path fill="none" stroke="black" d="M209.5,-956.92C248.73,-944.16 302.5,-926.67 343.87,-913.21"/>
<polygon fill="black" stroke="black" points="345.14,-916.48 353.57,-910.06 342.98,-909.82 345.14,-916.48"/>
<text text-anchor="middle" x="399.5" y="-931" font-family="Times,serif" font-size="10.00">WITNESS_SELECTION_COMMITMENT</text>
</g>
<!-- VERIFYING_WITNESSES -->
<g id="node7" class="node">
<title>VERIFYING_WITNESSES</title>
<path fill="none" stroke="black" d="M554.5,-816C554.5,-816 381.5,-816 381.5,-816 375.5,-816 369.5,-810 369.5,-804 369.5,-804 369.5,-792 369.5,-792 369.5,-786 375.5,-780 381.5,-780 381.5,-780 554.5,-780 554.5,-780 560.5,-780 566.5,-786 566.5,-792 566.5,-792 566.5,-804 566.5,-804 566.5,-810 560.5,-816 554.5,-816"/>
<text text-anchor="middle" x="468" y="-794.3" font-family="Times,serif" font-size="14.00">VERIFYING_WITNESSES</text>
</g>
<!-- VERIFYING_PROVIDER_CHAIN&#45;&gt;VERIFYING_WITNESSES -->
<g id="edge7" class="edge">
<title>VERIFYING_PROVIDER_CHAIN&#45;&gt;VERIFYING_WITNESSES</title>
<path fill="none" stroke="black" d="M417.66,-873.7C426.93,-859.95 440.03,-840.5 450.55,-824.9"/>
<polygon fill="black" stroke="black" points="453.7,-826.48 456.39,-816.23 447.9,-822.56 453.7,-826.48"/>
<text text-anchor="middle" x="524" y="-848" font-family="Times,serif" font-size="10.00">auto</text>
<text text-anchor="middle" x="524" y="-837" font-family="Times,serif" font-size="10.00">[chain_segment_valid_and_c...]</text>
</g>
<!-- SENDING_REQUESTS -->
<g id="node8" class="node">
<title>SENDING_REQUESTS</title>
<path fill="none" stroke="black" d="M583.5,-722C583.5,-722 428.5,-722 428.5,-722 422.5,-722 416.5,-716 416.5,-710 416.5,-710 416.5,-698 416.5,-698 416.5,-692 422.5,-686 428.5,-686 428.5,-686 583.5,-686 583.5,-686 589.5,-686 595.5,-692 595.5,-698 595.5,-698 595.5,-710 595.5,-710 595.5,-716 589.5,-722 583.5,-722"/>
<text text-anchor="middle" x="506" y="-700.3" font-family="Times,serif" font-size="14.00">SENDING_REQUESTS</text>
</g>
<!-- VERIFYING_WITNESSES&#45;&gt;SENDING_REQUESTS -->
<g id="edge8" class="edge">
<title>VERIFYING_WITNESSES&#45;&gt;SENDING_REQUESTS</title>
<path fill="none" stroke="black" d="M475.15,-779.7C480.72,-766.2 488.56,-747.23 494.94,-731.78"/>
<polygon fill="black" stroke="black" points="498.3,-732.81 498.88,-722.23 491.83,-730.13 498.3,-732.81"/>
<text text-anchor="middle" x="554.5" y="-754" font-family="Times,serif" font-size="10.00">auto</text>
<text text-anchor="middle" x="554.5" y="-743" font-family="Times,serif" font-size="10.00">[witness_selection_valid]</text>
</g>
<!-- WAITING_FOR_RESULT -->
<g id="node9" class="node">
<title>WAITING_FOR_RESULT</title>
<path fill="none" stroke="black" d="M577,-639C577,-639 413,-639 413,-639 407,-639 401,-633 401,-627 401,-627 401,-615 401,-615 401,-609 407,-603 413,-603 413,-603 577,-603 577,-603 583,-603 589,-609 589,-615 589,-615 589,-627 589,-627 589,-633 583,-639 577,-639"/>
<text text-anchor="middle" x="495" y="-617.3" font-family="Times,serif" font-size="14.00">WAITING_FOR_RESULT</text>
</g>
<!-- SENDING_REQUESTS&#45;&gt;WAITING_FOR_RESULT -->
<g id="edge9" class="edge">
<title>SENDING_REQUESTS&#45;&gt;WAITING_FOR_RESULT</title>
<path fill="none" stroke="black" d="M503.67,-685.82C502.22,-675.19 500.34,-661.31 498.69,-649.2"/>
<polygon fill="black" stroke="black" points="502.14,-648.59 497.33,-639.15 495.21,-649.53 502.14,-648.59"/>
<text text-anchor="middle" x="512.5" y="-660" font-family="Times,serif" font-size="10.00">auto</text>
</g>
<!-- WAITING_FOR_RESULT&#45;&gt;FAILED -->
<g id="edge11" class="edge">
<title>WAITING_FOR_RESULT&#45;&gt;FAILED</title>
<path fill="none" stroke="black" d="M400.9,-608.94C329.83,-598.76 240.07,-581.35 213,-556 189.89,-534.36 182.72,-497.33 180.63,-472.04"/>
<polygon fill="black" stroke="black" points="184.12,-471.77 180.01,-462 177.13,-472.2 184.12,-471.77"/>
<text text-anchor="middle" x="306.5" y="-535.5" font-family="Times,serif" font-size="10.00">timeout(RECRUITMENT_TIMEOUT)</text>
</g>
<!-- REVIEWING_RESULT -->
<g id="node10" class="node">
<title>REVIEWING_RESULT</title>
<path fill="none" stroke="black" d="M569.5,-556C569.5,-556 420.5,-556 420.5,-556 414.5,-556 408.5,-550 408.5,-544 408.5,-544 408.5,-532 408.5,-532 408.5,-526 414.5,-520 420.5,-520 420.5,-520 569.5,-520 569.5,-520 575.5,-520 581.5,-526 581.5,-532 581.5,-532 581.5,-544 581.5,-544 581.5,-550 575.5,-556 569.5,-556"/>
<text text-anchor="middle" x="495" y="-534.3" font-family="Times,serif" font-size="14.00">REVIEWING_RESULT</text>
</g>
<!-- WAITING_FOR_RESULT&#45;&gt;REVIEWING_RESULT -->
<g id="edge10" class="edge">
<title>WAITING_FOR_RESULT&#45;&gt;REVIEWING_RESULT</title>
<path fill="none" stroke="black" d="M495,-602.82C495,-592.19 495,-578.31 495,-566.2"/>
<polygon fill="black" stroke="black" points="498.5,-566.15 495,-556.15 491.5,-566.15 498.5,-566.15"/>
<text text-anchor="middle" x="583" y="-577" font-family="Times,serif" font-size="10.00">LOCK_RESULT_FOR_SIGNATURE</text>
</g>
<!-- REVIEWING_RESULT&#45;&gt;FAILED -->
<g id="edge13" class="edge">
<title>REVIEWING_RESULT&#45;&gt;FAILED</title>
<path fill="none" stroke="black" d="M408.09,-520.26C384.23,-515.05 358.48,-508.85 335,-502 297.37,-491.02 255.73,-475.51 225.09,-463.45"/>
<polygon fill="black" stroke="black" points="226.14,-460.09 215.55,-459.66 223.56,-466.6 226.14,-460.09"/>
<text text-anchor="middle" x="413" y="-494" font-family="Times,serif" font-size="10.00">auto</text>
<text text-anchor="middle" x="413" y="-483" font-family="Times,serif" font-size="10.00">[NOT result_valid_and_acce...]</text>
</g>
<!-- SIGNING_RESULT -->
<g id="node11" class="node">
<title>SIGNING_RESULT</title>
<path fill="none" stroke="black" d="M558,-462C558,-462 432,-462 432,-462 426,-462 420,-456 420,-450 420,-450 420,-438 420,-438 420,-432 426,-426 432,-426 432,-426 558,-426 558,-426 564,-426 570,-432 570,-438 570,-438 570,-450 570,-450 570,-456 564,-462 558,-462"/>
<text text-anchor="middle" x="495" y="-440.3" font-family="Times,serif" font-size="14.00">SIGNING_RESULT</text>
</g>
<!-- REVIEWING_RESULT&#45;&gt;SIGNING_RESULT -->
<g id="edge12" class="edge">
<title>REVIEWING_RESULT&#45;&gt;SIGNING_RESULT</title>
<path fill="none" stroke="black" d="M495,-519.7C495,-506.46 495,-487.95 495,-472.66"/>
<polygon fill="black" stroke="black" points="498.5,-472.23 495,-462.23 491.5,-472.23 498.5,-472.23"/>
<text text-anchor="middle" x="566.5" y="-494" font-family="Times,serif" font-size="10.00">auto</text>
<text text-anchor="middle" x="566.5" y="-483" font-family="Times,serif" font-size="10.00">[result_valid_and_accepted]</text>
</g>
<!-- LOCKED -->
<g id="node12" class="node">
<title>LOCKED</title>
<path fill="none" stroke="black" d="M523,-379C523,-379 467,-379 467,-379 461,-379 455,-373 455,-367 455,-367 455,-355 455,-355 455,-349 461,-343 467,-343 467,-343 523,-343 523,-343 529,-343 535,-349 535,-355 535,-355 535,-367 535,-367 535,-373 529,-379 523,-379"/>
<text text-anchor="middle" x="495" y="-357.3" font-family="Times,serif" font-size="14.00">LOCKED</text>
</g>
<!-- SIGNING_RESULT&#45;&gt;LOCKED -->
<g id="edge14" class="edge">
<title>SIGNING_RESULT&#45;&gt;LOCKED</title>
<path fill="none" stroke="black" d="M495,-425.82C495,-415.19 495,-401.31 495,-389.2"/>
<polygon fill="black" stroke="black" points="498.5,-389.15 495,-379.15 491.5,-389.15 498.5,-389.15"/>
<text text-anchor="middle" x="506.5" y="-400" font-family="Times,serif" font-size="10.00">auto</text>
</g>
<!-- LOCKED&#45;&gt;LOCKED -->
<g id="edge15" class="edge">
<title>LOCKED&#45;&gt;LOCKED</title>
<path fill="none" stroke="black" d="M535.12,-368.41C545.33,-367.92 553,-365.45 553,-361 553,-358.22 550,-356.21 545.26,-354.97"/>
<polygon fill="black" stroke="black" points="545.5,-351.47 535.12,-353.59 544.55,-358.41 545.5,-351.47"/>
<text text-anchor="middle" x="597.5" y="-358.5" font-family="Times,serif" font-size="10.00">LIVENESS_PING</text>
</g>
<!-- SENDING_TOPUP -->
<g id="node13" class="node">
<title>SENDING_TOPUP</title>
<path fill="none" stroke="black" d="M447,-296C447,-296 325,-296 325,-296 319,-296 313,-290 313,-284 313,-284 313,-272 313,-272 313,-266 319,-260 325,-260 325,-260 447,-260 447,-260 453,-260 459,-266 459,-272 459,-272 459,-284 459,-284 459,-290 453,-296 447,-296"/>
<text text-anchor="middle" x="386" y="-274.3" font-family="Times,serif" font-size="14.00">SENDING_TOPUP</text>
</g>
<!-- LOCKED&#45;&gt;SENDING_TOPUP -->
<g id="edge16" class="edge">
<title>LOCKED&#45;&gt;SENDING_TOPUP</title>
<path fill="none" stroke="black" d="M454.95,-349.94C439.52,-344.52 422.61,-336.52 410,-325 404.15,-319.65 399.48,-312.55 395.88,-305.52"/>
<polygon fill="black" stroke="black" points="398.95,-303.81 391.62,-296.17 392.58,-306.72 398.95,-303.81"/>
<text text-anchor="middle" x="445.5" y="-317" font-family="Times,serif" font-size="10.00">initiate_topup</text>
</g>
<!-- WAITING_FOR_TOPUP_RESULT -->
<g id="node14" class="node">
<title>WAITING_FOR_TOPUP_RESULT</title>
<path fill="none" stroke="black" d="M605.5,-213C605.5,-213 384.5,-213 384.5,-213 378.5,-213 372.5,-207 372.5,-201 372.5,-201 372.5,-189 372.5,-189 372.5,-183 378.5,-177 384.5,-177 384.5,-177 605.5,-177 605.5,-177 611.5,-177 617.5,-183 617.5,-189 617.5,-189 617.5,-201 617.5,-201 617.5,-207 611.5,-213 605.5,-213"/>
<text text-anchor="middle" x="495" y="-191.3" font-family="Times,serif" font-size="14.00">WAITING_FOR_TOPUP_RESULT</text>
</g>
<!-- SENDING_TOPUP&#45;&gt;WAITING_FOR_TOPUP_RESULT -->
<g id="edge17" class="edge">
<title>SENDING_TOPUP&#45;&gt;WAITING_FOR_TOPUP_RESULT</title>
<path fill="none" stroke="black" d="M409.12,-259.82C425.01,-248.01 446.31,-232.18 463.72,-219.24"/>
<polygon fill="black" stroke="black" points="465.98,-221.93 471.92,-213.15 461.8,-216.31 465.98,-221.93"/>
<text text-anchor="middle" x="458.5" y="-234" font-family="Times,serif" font-size="10.00">auto</text>
</g>
<!-- WAITING_FOR_TOPUP_RESULT&#45;&gt;LOCKED -->
<g id="edge19" class="edge">
<title>WAITING_FOR_TOPUP_RESULT&#45;&gt;LOCKED</title>
<path fill="none" stroke="black" d="M495,-213.01C495,-241.35 495,-298.48 495,-332.57"/>
<polygon fill="black" stroke="black" points="491.5,-332.76 495,-342.76 498.5,-332.76 491.5,-332.76"/>
<text text-anchor="middle" x="582" y="-275.5" font-family="Times,serif" font-size="10.00">timeout(CONSENSUS_TIMEOUT)</text>
</g>
<!-- REVIEWING_TOPUP_RESULT -->
<g id="node15" class="node">
<title>REVIEWING_TOPUP_RESULT</title>
<path fill="none" stroke="black" d="M630,-130C630,-130 424,-130 424,-130 418,-130 412,-124 412,-118 412,-118 412,-106 412,-106 412,-100 418,-94 424,-94 424,-94 630,-94 630,-94 636,-94 642,-100 642,-106 642,-106 642,-118 642,-118 642,-124 636,-130 630,-130"/>
<text text-anchor="middle" x="527" y="-108.3" font-family="Times,serif" font-size="14.00">REVIEWING_TOPUP_RESULT</text>
</g>
<!-- WAITING_FOR_TOPUP_RESULT&#45;&gt;REVIEWING_TOPUP_RESULT -->
<g id="edge18" class="edge">
<title>WAITING_FOR_TOPUP_RESULT&#45;&gt;REVIEWING_TOPUP_RESULT</title>
<path fill="none" stroke="black" d="M494.67,-176.86C495.03,-167.96 496.34,-157.09 500,-148 501.3,-144.77 502.99,-141.58 504.88,-138.53"/>
<polygon fill="black" stroke="black" points="507.75,-140.54 510.64,-130.34 502.02,-136.51 507.75,-140.54"/>
<text text-anchor="middle" x="591.5" y="-151" font-family="Times,serif" font-size="10.00">TOPUP_RESULT_FOR_SIGNATURE</text>
</g>
<!-- SIGNING_TOPUP -->
<g id="node16" class="node">
<title>SIGNING_TOPUP</title>
<path fill="none" stroke="black" d="M684.5,-36C684.5,-36 567.5,-36 567.5,-36 561.5,-36 555.5,-30 555.5,-24 555.5,-24 555.5,-12 555.5,-12 555.5,-6 561.5,0 567.5,0 567.5,0 684.5,0 684.5,0 690.5,0 696.5,-6 696.5,-12 696.5,-12 696.5,-24 696.5,-24 696.5,-30 690.5,-36 684.5,-36"/>
<text text-anchor="middle" x="626" y="-14.3" font-family="Times,serif" font-size="14.00">SIGNING_TOPUP</text>
</g>
<!-- REVIEWING_TOPUP_RESULT&#45;&gt;SIGNING_TOPUP -->
<g id="edge20" class="edge">
<title>REVIEWING_TOPUP_RESULT&#45;&gt;SIGNING_TOPUP</title>
<path fill="none" stroke="black" d="M541.59,-93.81C551.86,-82.11 566.18,-66.52 580,-54 584.38,-50.03 589.19,-46.03 593.98,-42.23"/>
<polygon fill="black" stroke="black" points="596.2,-44.94 601.98,-36.06 591.92,-39.4 596.2,-44.94"/>
<text text-anchor="middle" x="631.5" y="-68" font-family="Times,serif" font-size="10.00">auto</text>
<text text-anchor="middle" x="631.5" y="-57" font-family="Times,serif" font-size="10.00">[topup_result_valid]</text>
</g>
<!-- SIGNING_TOPUP&#45;&gt;LOCKED -->
<g id="edge21" class="edge">
<title>SIGNING_TOPUP&#45;&gt;LOCKED</title>
<path fill="none" stroke="black" d="M663.19,-36C670.66,-40.89 677.8,-46.87 683,-54 698.38,-75.07 697,-84.91 697,-111 697,-279 697,-279 697,-279 697,-344.18 605.26,-358.3 545.43,-360.57"/>
<polygon fill="black" stroke="black" points="545.29,-357.07 535.39,-360.86 545.49,-364.07 545.29,-357.07"/>
<text text-anchor="middle" x="708.5" y="-192.5" font-family="Times,serif" font-size="10.00">auto</text>
</g>
</g>
</svg>
