<?xml version="1.0" encoding="UTF-8" standalone="no"?>
<!DOCTYPE svg PUBLIC "-//W3C//DTD SVG 1.1//EN"
 "http://www.w3.org/Graphics/SVG/1.1/DTD/svg11.dtd">
<!-- Generated by graphviz version 2.43.0 (0)
 -->
<!-- Title: %3 Pages: 1 -->
<svg width="846pt" height="1489pt"
 viewBox="0.00 0.00 846.00 1489.40" xmlns="http://www.w3.org/2000/svg" xmlns:xlink="http://www.w3.org/1999/xlink">
<g id="graph0" class="graph" transform="scale(1 1) rotate(0) translate(4 1485.4)">
<title>%3</title>
<polygon fill="white" stroke="transparent" points="-4,4 -4,-1485.4 842,-1485.4 842,4 -4,4"/>
<!-- __start__ -->
<g id="node1" class="node">
<title>__start__</title>
<ellipse fill="black" stroke="black" cx="402" cy="-1474.2" rx="7.2" ry="7.2"/>
</g>
<!-- IDLE -->
<g id="node2" class="node">
<title>IDLE</title>
<path fill="none" stroke="black" d="M417,-1430C417,-1430 387,-1430 387,-1430 381,-1430 375,-1424 375,-1418 375,-1418 375,-1406 375,-1406 375,-1400 381,-1394 387,-1394 387,-1394 417,-1394 417,-1394 423,-1394 429,-1400 429,-1406 429,-1406 429,-1418 429,-1418 429,-1424 423,-1430 417,-1430"/>
<text text-anchor="middle" x="402" y="-1408.3" font-family="Times,serif" font-size="14.00">IDLE</text>
</g>
<!-- __start__&#45;&gt;IDLE -->
<g id="edge1" class="edge">
<title>__start__&#45;&gt;IDLE</title>
<path fill="none" stroke="black" d="M402,-1466.76C402,-1460.39 402,-1450.2 402,-1440.39"/>
<polygon fill="black" stroke="black" points="405.5,-1440.1 402,-1430.1 398.5,-1440.1 405.5,-1440.1"/>
</g>
<!-- CHECKING_CHAIN_KNOWLEDGE -->
<g id="node3" class="node">
<title>CHECKING_CHAIN_KNOWLEDGE</title>
<path fill="none" stroke="black" d="M521.5,-1347C521.5,-1347 282.5,-1347 282.5,-1347 276.5,-1347 270.5,-1341 270.5,-1335 270.5,-1335 270.5,-1323 270.5,-1323 270.5,-1317 276.5,-1311 282.5,-1311 282.5,-1311 521.5,-1311 521.5,-1311 527.5,-1311 533.5,-1317 533.5,-1323 533.5,-1323 533.5,-1335 533.5,-1335 533.5,-1341 527.5,-1347 521.5,-1347"/>
<text text-anchor="middle" x="402" y="-1325.3" font-family="Times,serif" font-size="14.00">CHECKING_CHAIN_KNOWLEDGE</text>
</g>
<!-- IDLE&#45;&gt;CHECKING_CHAIN_KNOWLEDGE -->
<g id="edge2" class="edge">
<title>IDLE&#45;&gt;CHECKING_CHAIN_KNOWLEDGE</title>
<path fill="none" stroke="black" d="M402,-1393.82C402,-1383.19 402,-1369.31 402,-1357.2"/>
<polygon fill="black" stroke="black" points="405.5,-1357.15 402,-1347.15 398.5,-1357.15 405.5,-1357.15"/>
<text text-anchor="middle" x="456.5" y="-1368" font-family="Times,serif" font-size="10.00">WITNESS_REQUEST</text>
</g>
<!-- CHECKING_BALANCE -->
<g id="node4" class="node">
<title>CHECKING_BALANCE</title>
<path fill="none" stroke="black" d="M479,-1264C479,-1264 325,-1264 325,-1264 319,-1264 313,-1258 313,-1252 313,-1252 313,-1240 313,-1240 313,-1234 319,-1228 325,-1228 325,-1228 479,-1228 479,-1228 485,-1228 491,-1234 491,-1240 491,-1240 491,-1252 491,-1252 491,-1258 485,-1264 479,-1264"/>
<text text-anchor="middle" x="402" y="-1242.3" font-family="Times,serif" font-size="14.00">CHECKING_BALANCE</text>
</g>
<!-- CHECKING_CHAIN_KNOWLEDGE&#45;&gt;CHECKING_BALANCE -->
<g id="edge3" class="edge">
<title>CHECKING_CHAIN_KNOWLEDGE&#45;&gt;CHECKING_BALANCE</title>
<path fill="none" stroke="black" d="M402,-1310.82C402,-1300.19 402,-1286.31 402,-1274.2"/>
<polygon fill="black" stroke="black" points="405.5,-1274.15 402,-1264.15 398.5,-1274.15 405.5,-1274.15"/>
<text text-anchor="middle" x="413.5" y="-1285" font-family="Times,serif" font-size="10.00">auto</text>
</g>
<!-- CHECKING_EXISTING_LOCKS -->
<g id="node5" class="node">
<title>CHECKING_EXISTING_LOCKS</title>
<path fill="none" stroke="black" d="M431,-1170C431,-1170 219,-1170 219,-1170 213,-1170 207,-1164 207,-1158 207,-1158 207,-1146 207,-1146 207,-1140 213,-1134 219,-1134 219,-1134 431,-1134 431,-1134 437,-1134 443,-1140 443,-1146 443,-1146 443,-1158 443,-1158 443,-1164 437,-1170 431,-1170"/>
<text text-anchor="middle" x="325" y="-1148.3" font-family="Times,serif" font-size="14.00">CHECKING_EXISTING_LOCKS</text>
</g>
<!-- CHECKING_BALANCE&#45;&gt;CHECKING_EXISTING_LOCKS -->
<g id="edge4" class="edge">
<title>CHECKING_BALANCE&#45;&gt;CHECKING_EXISTING_LOCKS</title>
<path fill="none" stroke="black" d="M331.87,-1227.97C324.07,-1223.35 317.11,-1217.47 312,-1210 305.88,-1201.05 307.13,-1189.64 310.67,-1179.38"/>
<polygon fill="black" stroke="black" points="313.95,-1180.6 314.6,-1170.02 307.5,-1177.89 313.95,-1180.6"/>
<text text-anchor="middle" x="395.5" y="-1202" font-family="Times,serif" font-size="10.00">auto</text>
<text text-anchor="middle" x="395.5" y="-1191" font-family="Times,serif" font-size="10.00">[observed_balance &gt;= amoun...]</text>
</g>
<!-- SHARING_PRELIMINARY -->
<g id="node6" class="node">
<title>SHARING_PRELIMINARY</title>
<path fill="none" stroke="black" d="M496.5,-1087C496.5,-1087 321.5,-1087 321.5,-1087 315.5,-1087 309.5,-1081 309.5,-1075 309.5,-1075 309.5,-1063 309.5,-1063 309.5,-1057 315.5,-1051 321.5,-1051 321.5,-1051 496.5,-1051 496.5,-1051 502.5,-1051 508.5,-1057 508.5,-1063 508.5,-1063 508.5,-1075 508.5,-1075 508.5,-1081 502.5,-1087 496.5,-1087"/>
<text text-anchor="middle" x="409" y="-1065.3" font-family="Times,serif" font-size="14.00">SHARING_PRELIMINARY</text>
</g>
<!-- CHECKING_BALANCE&#45;&gt;SHARING_PRELIMINARY -->
<g id="edge5" class="edge">
<title>CHECKING_BALANCE&#45;&gt;SHARING_PRELIMINARY</title>
<path fill="none" stroke="black" d="M459.91,-1227.89C467.47,-1223.27 474.23,-1217.41 479,-1210 503.85,-1171.41 465.44,-1122.8 436.42,-1094.19"/>
<polygon fill="black" stroke="black" points="438.57,-1091.4 428.92,-1087.02 433.73,-1096.46 438.57,-1091.4"/>
<text text-anchor="middle" x="562" y="-1155" font-family="Times,serif" font-size="10.00">auto</text>
<text text-anchor="middle" x="562" y="-1144" font-family="Times,serif" font-size="10.00">[observed_balance &lt; amount]</text>
</g>
<!-- CHECKING_EXISTING_LOCKS&#45;&gt;SHARING_PRELIMINARY -->
<g id="edge6" class="edge">
<title>CHECKING_EXISTING_LOCKS&#45;&gt;SHARING_PRELIMINARY</title>
<path fill="none" stroke="black" d="M342.81,-1133.82C354.73,-1122.33 370.59,-1107.04 383.79,-1094.31"/>
<polygon fill="black" stroke="black" points="386.44,-1096.61 391.21,-1087.15 381.58,-1091.58 386.44,-1096.61"/>
<text text-anchor="middle" x="384.5" y="-1108" font-family="Times,serif" font-size="10.00">auto</text>
</g>
<!-- COLLECTING_PRELIMINARIES -->
<g id="node7" class="node">
<title>COLLECTING_PRELIMINARIES</title>
<path fill="none" stroke="black" d="M519,-1004C519,-1004 299,-1004 299,-1004 293,-1004 287,-998 287,-992 287,-992 287,-980 287,-980 287,-974 293,-968 299,-968 299,-968 519,-968 519,-968 525,-968 531,-974 531,-980 531,-980 531,-992 531,-992 531,-998 525,-1004 519,-1004"/>
<text text-anchor="middle" x="409" y="-982.3" font-family="Times,serif" font-size="14.00">COLLECTING_PRELIMINARIES</text>
</g>
<!-- SHARING_PRELIMINARY&#45;&gt;COLLECTING_PRELIMINARIES -->
<g id="edge7" class="edge">
<title>SHARING_PRELIMINARY&#45;&gt;COLLECTING_PRELIMINARIES</title>
<path fill="none" stroke="black" d="M409,-1050.82C409,-1040.19 409,-1026.31 409,-1014.2"/>
<polygon fill="black" stroke="black" points="412.5,-1014.15 409,-1004.15 405.5,-1014.15 412.5,-1014.15"/>
<text text-anchor="middle" x="420.5" y="-1025" font-family="Times,serif" font-size="10.00">auto</text>
</g>
<!-- COLLECTING_PRELIMINARIES&#45;&gt;COLLECTING_PRELIMINARIES -->
<g id="edge8" class="edge">
<title>COLLECTING_PRELIMINARIES&#45;&gt;COLLECTING_PRELIMINARIES</title>
<path fill="none" stroke="black" d="M531.4,-991.91C542.22,-990.66 549,-988.7 549,-986 549,-984.27 546.22,-982.84 541.37,-981.71"/>
<polygon fill="black" stroke="black" points="541.83,-978.24 531.4,-980.09 540.71,-985.15 541.83,-978.24"/>
<text text-anchor="middle" x="616" y="-983.5" font-family="Times,serif" font-size="10.00">WITNESS_PRELIMINARY</text>
</g>
<!-- VOTING -->
<g id="node8" class="node">
<title>VOTING</title>
<path fill="none" stroke="black" d="M434.5,-910C434.5,-910 383.5,-910 383.5,-910 377.5,-910 371.5,-904 371.5,-898 371.5,-898 371.5,-886 371.5,-886 371.5,-880 377.5,-874 383.5,-874 383.5,-874 434.5,-874 434.5,-874 440.5,-874 446.5,-880 446.5,-886 446.5,-886 446.5,-898 446.5,-898 446.5,-904 440.5,-910 434.5,-910"/>
<text text-anchor="middle" x="409" y="-888.3" font-family="Times,serif" font-size="14.00">VOTING</text>
</g>
<!-- COLLECTING_PRELIMINARIES&#45;&gt;VOTING -->
<g id="edge9" class="edge">
<title>COLLECTING_PRELIMINARIES&#45;&gt;VOTING</title>
<path fill="none" stroke="black" d="M337.67,-967.83C329.96,-963.23 323.08,-957.4 318,-950 303.11,-928.32 332.26,-913.23 361.43,-904.05"/>
<polygon fill="black" stroke="black" points="362.66,-907.33 371.26,-901.16 360.68,-900.62 362.66,-907.33"/>
<text text-anchor="middle" x="399" y="-942" font-family="Times,serif" font-size="10.00">auto</text>
<text text-anchor="middle" x="399" y="-931" font-family="Times,serif" font-size="10.00">[LENGTH (preliminaries) &gt;=...]</text>
</g>
<!-- COLLECTING_PRELIMINARIES&#45;&gt;VOTING -->
<g id="edge10" class="edge">
<title>COLLECTING_PRELIMINARIES&#45;&gt;VOTING</title>
<path fill="none" stroke="black" d="M461.42,-967.85C468.81,-963.21 475.43,-957.35 480,-950 485.16,-941.7 485.16,-936.3 480,-928 474.33,-918.89 465.52,-912.08 456.01,-907.02"/>
<polygon fill="black" stroke="black" points="457.3,-903.76 446.76,-902.68 454.33,-910.1 457.3,-903.76"/>
<text text-anchor="middle" x="573.5" y="-936.5" font-family="Times,serif" font-size="10.00">timeout(PRELIMINARY_TIMEOUT)</text>
</g>
<!-- COLLECTING_VOTES -->
<g id="node9" class="node">
<title>COLLECTING_VOTES</title>
<path fill="none" stroke="black" d="M483,-827C483,-827 335,-827 335,-827 329,-827 323,-821 323,-815 323,-815 323,-803 323,-803 323,-797 329,-791 335,-791 335,-791 483,-791 483,-791 489,-791 495,-797 495,-803 495,-803 495,-815 495,-815 495,-821 489,-827 483,-827"/>
<text text-anchor="middle" x="409" y="-805.3" font-family="Times,serif" font-size="14.00">COLLECTING_VOTES</text>
</g>
<!-- VOTING&#45;&gt;COLLECTING_VOTES -->
<g id="edge11" class="edge">
<title>VOTING&#45;&gt;COLLECTING_VOTES</title>
<path fill="none" stroke="black" d="M409,-873.82C409,-863.19 409,-849.31 409,-837.2"/>
<polygon fill="black" stroke="black" points="412.5,-837.15 409,-827.15 405.5,-837.15 412.5,-837.15"/>
<text text-anchor="middle" x="420.5" y="-848" font-family="Times,serif" font-size="10.00">auto</text>
</g>
<!-- COLLECTING_VOTES&#45;&gt;COLLECTING_VOTES -->
<g id="edge12" class="edge">
<title>COLLECTING_VOTES&#45;&gt;COLLECTING_VOTES</title>
<path fill="none" stroke="black" d="M495.08,-815.53C505.89,-814.38 513,-812.2 513,-809 513,-806.95 510.08,-805.32 505.14,-804.11"/>
<polygon fill="black" stroke="black" points="505.51,-800.62 495.08,-802.47 504.38,-807.53 505.51,-800.62"/>
<text text-anchor="middle" x="575.5" y="-806.5" font-family="Times,serif" font-size="10.00">WITNESS_FINAL_VOTE</text>
</g>
<!-- BUILDING_RESULT -->
<g id="node10" class="node">
<title>BUILDING_RESULT</title>
<path fill="none" stroke="black" d="M477,-733C477,-733 341,-733 341,-733 335,-733 329,-727 329,-721 329,-721 329,-709 329,-709 329,-703 335,-697 341,-697 341,-697 477,-697 477,-697 483,-697 489,-703 489,-709 489,-709 489,-721 489,-721 489,-727 483,-733 477,-733"/>
<text text-anchor="middle" x="409" y="-711.3" font-family="Times,serif" font-size="14.00">BUILDING_RESULT</text>
</g>
<!-- COLLECTING_VOTES&#45;&gt;BUILDING_RESULT -->
<g id="edge13" class="edge">
<title>COLLECTING_VOTES&#45;&gt;BUILDING_RESULT</title>
<path fill="none" stroke="black" d="M337.87,-790.92C315.02,-781.83 298.47,-768.78 311,-751 314.25,-746.39 318.17,-742.38 322.54,-738.89"/>
<polygon fill="black" stroke="black" points="324.61,-741.72 330.86,-733.17 320.64,-735.95 324.61,-741.72"/>
<text text-anchor="middle" x="398.5" y="-765" font-family="Times,serif" font-size="10.00">auto</text>
<text text-anchor="middle" x="398.5" y="-754" font-family="Times,serif" font-size="10.00">[LENGTH (votes) &gt;= WITNESS...]</text>
</g>
<!-- COLLECTING_VOTES&#45;&gt;BUILDING_RESULT -->
<g id="edge14" class="edge">
<title>COLLECTING_VOTES&#45;&gt;BUILDING_RESULT</title>
<path fill="none" stroke="black" d="M466.91,-790.89C474.47,-786.27 481.23,-780.41 486,-773 491.29,-764.78 491.29,-759.22 486,-751 483.09,-746.49 479.45,-742.55 475.33,-739.11"/>
<polygon fill="black" stroke="black" points="477.08,-736.06 466.91,-733.11 473.02,-741.76 477.08,-736.06"/>
<text text-anchor="middle" x="576.5" y="-765" font-family="Times,serif" font-size="10.00">timeout(CONSENSUS_TIMEOUT)</text>
<text text-anchor="middle" x="576.5" y="-754" font-family="Times,serif" font-size="10.00">[LENGTH (votes) &gt;= WITNESS...]</text>
</g>
<!-- SIGNING_RESULT -->
<g id="node11" class="node">
<title>SIGNING_RESULT</title>
<path fill="none" stroke="black" d="M472,-650C472,-650 346,-650 346,-650 340,-650 334,-644 334,-638 334,-638 334,-626 334,-626 334,-620 340,-614 346,-614 346,-614 472,-614 472,-614 478,-614 484,-620 484,-626 484,-626 484,-638 484,-638 484,-644 478,-650 472,-650"/>
<text text-anchor="middle" x="409" y="-628.3" font-family="Times,serif" font-size="14.00">SIGNING_RESULT</text>
</g>
<!-- BUILDING_RESULT&#45;&gt;SIGNING_RESULT -->
<g id="edge15" class="edge">
<title>BUILDING_RESULT&#45;&gt;SIGNING_RESULT</title>
<path fill="none" stroke="black" d="M409,-696.82C409,-686.19 409,-672.31 409,-660.2"/>
<polygon fill="black" stroke="black" points="412.5,-660.15 409,-650.15 405.5,-660.15 412.5,-660.15"/>
<text text-anchor="middle" x="420.5" y="-671" font-family="Times,serif" font-size="10.00">auto</text>
</g>
<!-- PROPAGATING_RESULT -->
<g id="node12" class="node">
<title>PROPAGATING_RESULT</title>
<path fill="none" stroke="black" d="M492.5,-567C492.5,-567 325.5,-567 325.5,-567 319.5,-567 313.5,-561 313.5,-555 313.5,-555 313.5,-543 313.5,-543 313.5,-537 319.5,-531 325.5,-531 325.5,-531 492.5,-531 492.5,-531 498.5,-531 504.5,-537 504.5,-543 504.5,-543 504.5,-555 504.5,-555 504.5,-561 498.5,-567 492.5,-567"/>
<text text-anchor="middle" x="409" y="-545.3" font-family="Times,serif" font-size="14.00">PROPAGATING_RESULT</text>
</g>
<!-- SIGNING_RESULT&#45;&gt;PROPAGATING_RESULT -->
<g id="edge16" class="edge">
<title>SIGNING_RESULT&#45;&gt;PROPAGATING_RESULT</title>
<path fill="none" stroke="black" d="M409,-613.82C409,-603.19 409,-589.31 409,-577.2"/>
<polygon fill="black" stroke="black" points="412.5,-577.15 409,-567.15 405.5,-577.15 412.5,-577.15"/>
<text text-anchor="middle" x="420.5" y="-588" font-family="Times,serif" font-size="10.00">auto</text>
</g>
<!-- ESCROW_ACTIVE -->
<g id="node13" class="node">
<title>ESCROW_ACTIVE</title>
<path fill="none" stroke="black" d="M355.5,-484C355.5,-484 234.5,-484 234.5,-484 228.5,-484 222.5,-478 222.5,-472 222.5,-472 222.5,-460 222.5,-460 222.5,-454 228.5,-448 234.5,-448 234.5,-448 355.5,-448 355.5,-448 361.5,-448 367.5,-454 367.5,-460 367.5,-460 367.5,-472 367.5,-472 367.5,-478 361.5,-484 355.5,-484"/>
<text text-anchor="middle" x="295" y="-462.3" font-family="Times,serif" font-size="14.00">ESCROW_ACTIVE</text>
</g>
<!-- PROPAGATING_RESULT&#45;&gt;ESCROW_ACTIVE -->
<g id="edge17" class="edge">
<title>PROPAGATING_RESULT&#45;&gt;ESCROW_ACTIVE</title>
<path fill="none" stroke="black" d="M379.54,-530.9C370.54,-525.42 360.73,-519.16 352,-513 342.22,-506.09 331.92,-498.04 322.81,-490.62"/>
<polygon fill="black" stroke="black" points="324.77,-487.7 314.82,-484.04 320.31,-493.1 324.77,-487.7"/>
<text text-anchor="middle" x="427" y="-505" font-family="Times,serif" font-size="10.00">CONSUMER_SIGNED_LOCK</text>
</g>
<!-- DONE -->
<g id="node14" class="node">
<title>DONE</title>
<path fill="none" stroke="black" d="M543,-484C543,-484 505,-484 505,-484 499,-484 493,-478 493,-472 493,-472 493,-460 493,-460 493,-454 499,-448 505,-448 505,-448 543,-448 543,-448 549,-448 555,-454 555,-460 555,-460 555,-472 555,-472 555,-478 549,-484 543,-484"/>
<text text-anchor="middle" x="524" y="-462.3" font-family="Times,serif" font-size="14.00">DONE</text>
</g>
<!-- PROPAGATING_RESULT&#45;&gt;DONE -->
<g id="edge18" class="edge">
<title>PROPAGATING_RESULT&#45;&gt;DONE</title>
<path fill="none" stroke="black" d="M474.22,-530.84C484.29,-526.2 493.99,-520.35 502,-513 507.74,-507.73 512.13,-500.65 515.43,-493.63"/>
<polygon fill="black" stroke="black" points="518.72,-494.84 519.26,-484.26 512.24,-492.19 518.72,-494.84"/>
<text text-anchor="middle" x="597" y="-505" font-family="Times,serif" font-size="10.00">timeout(CONSENSUS_TIMEOUT)</text>
</g>
<!-- ESCROW_ACTIVE&#45;&gt;ESCROW_ACTIVE -->
<g id="edge30" class="edge">
<title>ESCROW_ACTIVE&#45;&gt;ESCROW_ACTIVE</title>
<path fill="none" stroke="black" d="M367.79,-472.77C378.37,-471.69 385.5,-469.44 385.5,-466 385.5,-463.8 382.57,-462.08 377.69,-460.85"/>
<polygon fill="black" stroke="black" points="378.22,-457.39 367.79,-459.23 377.09,-464.3 378.22,-457.39"/>
<text text-anchor="middle" x="430" y="-463.5" font-family="Times,serif" font-size="10.00">LIVENESS_PING</text>
</g>
<!-- CHECKING_TOPUP_BALANCE -->
<g id="node15" class="node">
<title>CHECKING_TOPUP_BALANCE</title>
<path fill="none" stroke="black" d="M224,-390C224,-390 12,-390 12,-390 6,-390 0,-384 0,-378 0,-378 0,-366 0,-366 0,-360 6,-354 12,-354 12,-354 224,-354 224,-354 230,-354 236,-360 236,-366 236,-366 236,-378 236,-378 236,-384 230,-390 224,-390"/>
<text text-anchor="middle" x="118" y="-368.3" font-family="Times,serif" font-size="14.00">CHECKING_TOPUP_BALANCE</text>
</g>
<!-- ESCROW_ACTIVE&#45;&gt;CHECKING_TOPUP_BALANCE -->
<g id="edge19" class="edge">
<title>ESCROW_ACTIVE&#45;&gt;CHECKING_TOPUP_BALANCE</title>
<path fill="none" stroke="black" d="M222.26,-460.69C145.04,-455.35 32.29,-445.08 19,-430 5.75,-414.96 18.38,-402.92 38.53,-393.84"/>
<polygon fill="black" stroke="black" points="39.98,-397.03 47.91,-390.01 37.33,-390.55 39.98,-397.03"/>
<text text-anchor="middle" x="61.5" y="-416.5" font-family="Times,serif" font-size="10.00">TOPUP_INTENT</text>
</g>
<!-- CHECKING_TOPUP_BALANCE&#45;&gt;ESCROW_ACTIVE -->
<g id="edge21" class="edge">
<title>CHECKING_TOPUP_BALANCE&#45;&gt;ESCROW_ACTIVE</title>
<path fill="none" stroke="black" d="M115.95,-390.19C115.45,-402.82 117.05,-419.55 127,-430 139.16,-442.77 175.99,-451.21 212.08,-456.6"/>
<polygon fill="black" stroke="black" points="211.83,-460.1 222.22,-458.04 212.81,-453.17 211.83,-460.1"/>
<text text-anchor="middle" x="204" y="-422" font-family="Times,serif" font-size="10.00">auto</text>
<text text-anchor="middle" x="204" y="-411" font-family="Times,serif" font-size="10.00">[topup_observed_balance &#45; ...]</text>
</g>
<!-- VOTING_TOPUP -->
<g id="node16" class="node">
<title>VOTING_TOPUP</title>
<path fill="none" stroke="black" d="M213.5,-296C213.5,-296 104.5,-296 104.5,-296 98.5,-296 92.5,-290 92.5,-284 92.5,-284 92.5,-272 92.5,-272 92.5,-266 98.5,-260 104.5,-260 104.5,-260 213.5,-260 213.5,-260 219.5,-260 225.5,-266 225.5,-272 225.5,-272 225.5,-284 225.5,-284 225.5,-290 219.5,-296 213.5,-296"/>
<text text-anchor="middle" x="159" y="-274.3" font-family="Times,serif" font-size="14.00">VOTING_TOPUP</text>
</g>
<!-- CHECKING_TOPUP_BALANCE&#45;&gt;VOTING_TOPUP -->
<g id="edge20" class="edge">
<title>CHECKING_TOPUP_BALANCE&#45;&gt;VOTING_TOPUP</title>
<path fill="none" stroke="black" d="M114.8,-353.98C113.41,-342.21 113.21,-326.48 119,-314 120.79,-310.14 123.24,-306.53 126.04,-303.22"/>
<polygon fill="black" stroke="black" points="128.6,-305.61 133.1,-296.02 123.6,-300.71 128.6,-305.61"/>
<text text-anchor="middle" x="196" y="-328" font-family="Times,serif" font-size="10.00">auto</text>
<text text-anchor="middle" x="196" y="-317" font-family="Times,serif" font-size="10.00">[topup_observed_balance &#45; ...]</text>
</g>
<!-- COLLECTING_TOPUP_VOTES -->
<g id="node17" class="node">
<title>COLLECTING_TOPUP_VOTES</title>
<path fill="none" stroke="black" d="M341,-213C341,-213 135,-213 135,-213 129,-213 123,-207 123,-201 123,-201 123,-189 123,-189 123,-183 129,-177 135,-177 135,-177 341,-177 341,-177 347,-177 353,-183 353,-189 353,-189 353,-201 353,-201 353,-207 347,-213 341,-213"/>
<text text-anchor="middle" x="238" y="-191.3" font-family="Times,serif" font-size="14.00">COLLECTING_TOPUP_VOTES</text>
</g>
<!-- VOTING_TOPUP&#45;&gt;COLLECTING_TOPUP_VOTES -->
<g id="edge22" class="edge">
<title>VOTING_TOPUP&#45;&gt;COLLECTING_TOPUP_VOTES</title>
<path fill="none" stroke="black" d="M175.75,-259.82C186.86,-248.44 201.6,-233.33 213.94,-220.66"/>
<polygon fill="black" stroke="black" points="216.79,-222.76 221.27,-213.15 211.78,-217.87 216.79,-222.76"/>
<text text-anchor="middle" x="215.5" y="-234" font-family="Times,serif" font-size="10.00">auto</text>
</g>
<!-- COLLECTING_TOPUP_VOTES&#45;&gt;ESCROW_ACTIVE -->
<g id="edge26" class="edge">
<title>COLLECTING_TOPUP_VOTES&#45;&gt;ESCROW_ACTIVE</title>
<path fill="none" stroke="black" d="M244.01,-213.39C251.71,-236.22 265.01,-277.69 273,-314 282.38,-356.63 288.8,-406.94 292.18,-437.38"/>
<polygon fill="black" stroke="black" points="288.74,-438.08 293.29,-447.64 295.7,-437.33 288.74,-438.08"/>
<text text-anchor="middle" x="365" y="-322.5" font-family="Times,serif" font-size="10.00">timeout(CONSENSUS_TIMEOUT)</text>
</g>
<!-- COLLECTING_TOPUP_VOTES&#45;&gt;COLLECTING_TOPUP_VOTES -->
<g id="edge23" class="edge">
<title>COLLECTING_TOPUP_VOTES&#45;&gt;COLLECTING_TOPUP_VOTES</title>
<path fill="none" stroke="black" d="M353.38,-201.01C364.18,-199.78 371,-197.77 371,-195 371,-193.22 368.2,-191.76 363.35,-190.62"/>
<polygon fill="black" stroke="black" points="363.81,-187.15 353.38,-188.99 362.68,-194.05 363.81,-187.15"/>
<text text-anchor="middle" x="407" y="-192.5" font-family="Times,serif" font-size="10.00">TOPUP_VOTE</text>
</g>
<!-- BUILDING_TOPUP_RESULT -->
<g id="node18" class="node">
<title>BUILDING_TOPUP_RESULT</title>
<path fill="none" stroke="black" d="M385,-119C385,-119 191,-119 191,-119 185,-119 179,-113 179,-107 179,-107 179,-95 179,-95 179,-89 185,-83 191,-83 191,-83 385,-83 385,-83 391,-83 397,-89 397,-95 397,-95 397,-107 397,-107 397,-113 391,-119 385,-119"/>
<text text-anchor="middle" x="288" y="-97.3" font-family="Times,serif" font-size="14.00">BUILDING_TOPUP_RESULT</text>
</g>
<!-- COLLECTING_TOPUP_VOTES&#45;&gt;BUILDING_TOPUP_RESULT -->
<g id="edge24" class="edge">
<title>COLLECTING_TOPUP_VOTES&#45;&gt;BUILDING_TOPUP_RESULT</title>
<path fill="none" stroke="black" d="M122.6,-177.46C97.21,-168.95 82.05,-156.16 98,-137 108.16,-124.79 136.81,-116.83 168.87,-111.64"/>
<polygon fill="black" stroke="black" points="169.55,-115.08 178.91,-110.11 168.5,-108.15 169.55,-115.08"/>
<text text-anchor="middle" x="182" y="-151" font-family="Times,serif" font-size="10.00">auto</text>
<text text-anchor="middle" x="182" y="-140" font-family="Times,serif" font-size="10.00">[LENGTH (topup_votes) &gt;= W...]</text>
</g>
<!-- COLLECTING_TOPUP_VOTES&#45;&gt;BUILDING_TOPUP_RESULT -->
<g id="edge25" class="edge">
<title>COLLECTING_TOPUP_VOTES&#45;&gt;BUILDING_TOPUP_RESULT</title>
<path fill="none" stroke="black" d="M253.36,-176.95C257.81,-171.47 262.43,-165.21 266,-159 271.41,-149.58 276.02,-138.57 279.59,-128.76"/>
<polygon fill="black" stroke="black" points="282.98,-129.67 282.93,-119.08 276.36,-127.39 282.98,-129.67"/>
<text text-anchor="middle" x="367.5" y="-151" font-family="Times,serif" font-size="10.00">timeout(PRELIMINARY_TIMEOUT)</text>
<text text-anchor="middle" x="367.5" y="-140" font-family="Times,serif" font-size="10.00">[LENGTH (topup_votes) &gt;= W...]</text>
</g>
<!-- PROPAGATING_TOPUP -->
<g id="node19" class="node">
<title>PROPAGATING_TOPUP</title>
<path fill="none" stroke="black" d="M563,-36C563,-36 405,-36 405,-36 399,-36 393,-30 393,-24 393,-24 393,-12 393,-12 393,-6 399,0 405,0 405,0 563,0 563,0 569,0 575,-6 575,-12 575,-12 575,-24 575,-24 575,-30 569,-36 563,-36"/>
<text text-anchor="middle" x="484" y="-14.3" font-family="Times,serif" font-size="14.00">PROPAGATING_TOPUP</text>
</g>
<!-- BUILDING_TOPUP_RESULT&#45;&gt;PROPAGATING_TOPUP -->
<g id="edge27" class="edge">
<title>BUILDING_TOPUP_RESULT&#45;&gt;PROPAGATING_TOPUP</title>
<path fill="none" stroke="black" d="M329.57,-82.82C359.94,-70.27 401.29,-53.18 433.56,-39.85"/>
<polygon fill="black" stroke="black" points="434.92,-43.07 442.83,-36.01 432.25,-36.6 434.92,-43.07"/>
<text text-anchor="middle" x="408.5" y="-57" font-family="Times,serif" font-size="10.00">auto</text>
</g>
<!-- PROPAGATING_TOPUP&#45;&gt;ESCROW_ACTIVE -->
<g id="edge28" class="edge">
<title>PROPAGATING_TOPUP&#45;&gt;ESCROW_ACTIVE</title>
<path fill="none" stroke="black" d="M484,-36.07C484,-52.46 484,-77.92 484,-100 484,-373 484,-373 484,-373 484,-423.63 428.48,-446.41 377.62,-456.65"/>
<polygon fill="black" stroke="black" points="376.72,-453.25 367.53,-458.53 378,-460.14 376.72,-453.25"/>
<text text-anchor="middle" x="562.5" y="-234" font-family="Times,serif" font-size="10.00">CONSUMER_SIGNED_TOPUP</text>
</g>
<!-- PROPAGATING_TOPUP&#45;&gt;ESCROW_ACTIVE -->
<g id="edge29" class="edge">
<title>PROPAGATING_TOPUP&#45;&gt;ESCROW_ACTIVE</title>
<path fill="none" stroke="black" d="M575.05,-26.82C619.7,-36.2 664,-56.48 664,-100 664,-373 664,-373 664,-373 664,-402.29 486.68,-435.18 377.88,-452.61"/>
<polygon fill="black" stroke="black" points="377.23,-449.17 367.9,-454.19 378.33,-456.08 377.23,-449.17"/>
<text text-anchor="middle" x="751" y="-234" font-family="Times,serif" font-size="10.00">timeout(CONSENSUS_TIMEOUT)</text>
</g>
</g>
</svg>
