<?xml version="1.0" encoding="UTF-8" standalone="no"?>
<!DOCTYPE svg PUBLIC "-//W3C//DTD SVG 1.1//EN"
 "http://www.w3.org/Graphics/SVG/1.1/DTD/svg11.dtd">
<!-- Generated by graphviz version 2.43.0 (0)
 -->
<!-- Title: %3 Pages: 1 -->
<svg width="399pt" height="564pt"
 viewBox="0.00 0.00 398.50 564.00" xmlns="http://www.w3.org/2000/svg" xmlns:xlink="http://www.w3.org/1999/xlink">
<g id="graph0" class="graph" transform="scale(1 1) rotate(0) translate(4 560)">
<title>%3</title>
<polygon fill="white" stroke="transparent" points="-4,4 -4,-560 394.5,-560 394.5,4 -4,4"/>
<!-- __start__ -->
<g id="node1" class="node">
<title>__start__</title>
<ellipse fill="black" stroke="black" cx="125.5" cy="-538" rx="7.2" ry="7.2"/>
</g>
<!-- IDLE -->
<g id="node2" class="node">
<title>IDLE</title>
<path fill="none" stroke="black" d="M197.5,-473C197.5,-473 167.5,-473 167.5,-473 161.5,-473 155.5,-467 155.5,-461 155.5,-461 155.5,-449 155.5,-449 155.5,-443 161.5,-437 167.5,-437 167.5,-437 197.5,-437 197.5,-437 203.5,-437 209.5,-443 209.5,-449 209.5,-449 209.5,-461 209.5,-461 209.5,-467 203.5,-473 197.5,-473"/>
<text text-anchor="middle" x="182.5" y="-451.3" font-family="Times,serif" font-size="14.00">IDLE</text>
</g>
<!-- __start__&#45;&gt;IDLE -->
<g id="edge1" class="edge">
<title>__start__&#45;&gt;IDLE</title>
<path fill="none" stroke="black" d="M129.24,-531.69C136.31,-521.64 152.04,-499.29 164.58,-481.47"/>
<polygon fill="black" stroke="black" points="167.54,-483.35 170.43,-473.15 161.81,-479.32 167.54,-483.35"/>
</g>
<!-- VALIDATING_CHECKPOINT -->
<g id="node3" class="node">
<title>VALIDATING_CHECKPOINT</title>
<path fill="none" stroke="black" d="M203,-390C203,-390 12,-390 12,-390 6,-390 0,-384 0,-378 0,-378 0,-366 0,-366 0,-360 6,-354 12,-354 12,-354 203,-354 203,-354 209,-354 215,-360 215,-366 215,-366 215,-378 215,-378 215,-384 209,-390 203,-390"/>
<text text-anchor="middle" x="107.5" y="-368.3" font-family="Times,serif" font-size="14.00">VALIDATING_CHECKPOINT</text>
</g>
<!-- IDLE&#45;&gt;VALIDATING_CHECKPOINT -->
<g id="edge2" class="edge">
<title>IDLE&#45;&gt;VALIDATING_CHECKPOINT</title>
<path fill="none" stroke="black" d="M166.59,-436.82C156.05,-425.44 142.06,-410.33 130.34,-397.66"/>
<polygon fill="black" stroke="black" points="132.74,-395.11 123.38,-390.15 127.61,-399.87 132.74,-395.11"/>
<text text-anchor="middle" x="189" y="-411" font-family="Times,serif" font-size="10.00">LOCK_INTENT</text>
</g>
<!-- SELECTING_WITNESSES -->
<g id="node4" class="node">
<title>SELECTING_WITNESSES</title>
<path fill="none" stroke="black" d="M195,-296C195,-296 18,-296 18,-296 12,-296 6,-290 6,-284 6,-284 6,-272 6,-272 6,-266 12,-260 18,-260 18,-260 195,-260 195,-260 201,-260 207,-266 207,-272 207,-272 207,-284 207,-284 207,-290 201,-296 195,-296"/>
<text text-anchor="middle" x="106.5" y="-274.3" font-family="Times,serif" font-size="14.00">SELECTING_WITNESSES</text>
</g>
<!-- VALIDATING_CHECKPOINT&#45;&gt;SELECTING_WITNESSES -->
<g id="edge3" class="edge">
<title>VALIDATING_CHECKPOINT&#45;&gt;SELECTING_WITNESSES</title>
<path fill="none" stroke="black" d="M99.77,-353.9C97.62,-348.31 95.58,-342 94.5,-336 92.77,-326.38 92.89,-323.64 94.5,-314 94.95,-311.3 95.58,-308.53 96.32,-305.79"/>
<polygon fill="black" stroke="black" points="99.69,-306.74 99.36,-296.15 93.02,-304.64 99.69,-306.74"/>
<text text-anchor="middle" x="168.5" y="-328" font-family="Times,serif" font-size="10.00">auto</text>
<text text-anchor="middle" x="168.5" y="-317" font-family="Times,serif" font-size="10.00">[checkpoint_exists_in_chai...]</text>
</g>
<!-- SENDING_COMMITMENT -->
<g id="node6" class="node">
<title>SENDING_COMMITMENT</title>
<path fill="none" stroke="black" d="M215.5,-213C215.5,-213 33.5,-213 33.5,-213 27.5,-213 21.5,-207 21.5,-201 21.5,-201 21.5,-189 21.5,-189 21.5,-183 27.5,-177 33.5,-177 33.5,-177 215.5,-177 215.5,-177 221.5,-177 227.5,-183 227.5,-189 227.5,-189 227.5,-201 227.5,-201 227.5,-207 221.5,-213 215.5,-213"/>
<text text-anchor="middle" x="124.5" y="-191.3" font-family="Times,serif" font-size="14.00">SENDING_COMMITMENT</text>
</g>
<!-- SELECTING_WITNESSES&#45;&gt;SENDING_COMMITMENT -->
<g id="edge5" class="edge">
<title>SELECTING_WITNESSES&#45;&gt;SENDING_COMMITMENT</title>
<path fill="none" stroke="black" d="M110.32,-259.82C112.68,-249.19 115.77,-235.31 118.45,-223.2"/>
<polygon fill="black" stroke="black" points="121.94,-223.67 120.69,-213.15 115.1,-222.16 121.94,-223.67"/>
<text text-anchor="middle" x="129" y="-234" font-family="Times,serif" font-size="10.00">auto</text>
</g>
<!-- SENDING_REJECTION -->
<g id="node5" class="node">
<title>SENDING_REJECTION</title>
<path fill="none" stroke="black" d="M318.5,-556C318.5,-556 162.5,-556 162.5,-556 156.5,-556 150.5,-550 150.5,-544 150.5,-544 150.5,-532 150.5,-532 150.5,-526 156.5,-520 162.5,-520 162.5,-520 318.5,-520 318.5,-520 324.5,-520 330.5,-526 330.5,-532 330.5,-532 330.5,-544 330.5,-544 330.5,-550 324.5,-556 318.5,-556"/>
<text text-anchor="middle" x="240.5" y="-534.3" font-family="Times,serif" font-size="14.00">SENDING_REJECTION</text>
</g>
<!-- SENDING_REJECTION&#45;&gt;IDLE -->
<g id="edge4" class="edge">
<title>SENDING_REJECTION&#45;&gt;IDLE</title>
<path fill="none" stroke="black" d="M228.2,-519.82C220.2,-508.65 209.63,-493.9 200.68,-481.38"/>
<polygon fill="black" stroke="black" points="203.45,-479.25 194.78,-473.15 197.76,-483.32 203.45,-479.25"/>
<text text-anchor="middle" x="226" y="-494" font-family="Times,serif" font-size="10.00">auto</text>
</g>
<!-- WAITING_FOR_LOCK -->
<g id="node7" class="node">
<title>WAITING_FOR_LOCK</title>
<path fill="none" stroke="black" d="M264,-130C264,-130 119,-130 119,-130 113,-130 107,-124 107,-118 107,-118 107,-106 107,-106 107,-100 113,-94 119,-94 119,-94 264,-94 264,-94 270,-94 276,-100 276,-106 276,-106 276,-118 276,-118 276,-124 270,-130 264,-130"/>
<text text-anchor="middle" x="191.5" y="-108.3" font-family="Times,serif" font-size="14.00">WAITING_FOR_LOCK</text>
</g>
<!-- SENDING_COMMITMENT&#45;&gt;WAITING_FOR_LOCK -->
<g id="edge6" class="edge">
<title>SENDING_COMMITMENT&#45;&gt;WAITING_FOR_LOCK</title>
<path fill="none" stroke="black" d="M138.71,-176.82C148.04,-165.55 160.39,-150.61 170.8,-138.02"/>
<polygon fill="black" stroke="black" points="173.63,-140.09 177.31,-130.15 168.24,-135.63 173.63,-140.09"/>
<text text-anchor="middle" x="174" y="-151" font-family="Times,serif" font-size="10.00">auto</text>
</g>
<!-- WAITING_FOR_LOCK&#45;&gt;IDLE -->
<g id="edge8" class="edge">
<title>WAITING_FOR_LOCK&#45;&gt;IDLE</title>
<path fill="none" stroke="black" d="M216.82,-130.13C235.07,-144.72 256.5,-167.5 256.5,-194 256.5,-373 256.5,-373 256.5,-373 256.5,-398.05 236.96,-418.75 217.97,-432.94"/>
<polygon fill="black" stroke="black" points="215.79,-430.19 209.63,-438.81 219.83,-435.92 215.79,-430.19"/>
<text text-anchor="middle" x="323.5" y="-275.5" font-family="Times,serif" font-size="10.00">timeout(LOCK_TIMEOUT)</text>
</g>
<!-- SERVICE_PHASE -->
<g id="node8" class="node">
<title>SERVICE_PHASE</title>
<path fill="none" stroke="black" d="M250,-36C250,-36 133,-36 133,-36 127,-36 121,-30 121,-24 121,-24 121,-12 121,-12 121,-6 127,0 133,0 133,0 250,0 250,0 256,0 262,-6 262,-12 262,-12 262,-24 262,-24 262,-30 256,-36 250,-36"/>
<text text-anchor="middle" x="191.5" y="-14.3" font-family="Times,serif" font-size="14.00">SERVICE_PHASE</text>
</g>
<!-- WAITING_FOR_LOCK&#45;&gt;SERVICE_PHASE -->
<g id="edge7" class="edge">
<title>WAITING_FOR_LOCK&#45;&gt;SERVICE_PHASE</title>
<path fill="none" stroke="black" d="M191.5,-93.7C191.5,-80.46 191.5,-61.95 191.5,-46.66"/>
<polygon fill="black" stroke="black" points="195,-46.23 191.5,-36.23 188,-46.23 195,-46.23"/>
<text text-anchor="middle" x="279.5" y="-68" font-family="Times,serif" font-size="10.00">BALANCE_UPDATE_BROADCAST</text>
<text text-anchor="middle" x="279.5" y="-57" font-family="Times,serif" font-size="10.00">[message.lock_result.sessi...]</text>
</g>
</g>
</svg>
