<?xml version="1.0" encoding="UTF-8" standalone="no"?>
<!DOCTYPE svg PUBLIC "-//W3C//DTD SVG 1.1//EN"
 "http://www.w3.org/Graphics/SVG/1.1/DTD/svg11.dtd">
<!-- Generated by graphviz version 2.43.0 (0)
 -->
<!-- Title: %3 Pages: 1 -->
<svg width="664pt" height="1229pt"
 viewBox="0.00 0.00 664.00 1229.40" xmlns="http://www.w3.org/2000/svg" xmlns:xlink="http://www.w3.org/1999/xlink">
<g id="graph0" class="graph" transform="scale(1 1) rotate(0) translate(4 1225.4)">
<title>%3</title>
<polygon fill="white" stroke="transparent" points="-4,4 -4,-1225.4 660,-1225.4 660,4 -4,4"/>
<!-- __start__ -->
<g id="node1" class="node">
<title>__start__</title>
<ellipse fill="black" stroke="black" cx="27" cy="-1214.2" rx="7.2" ry="7.2"/>
</g>
<!-- IDLE -->
<g id="node2" class="node">
<title>IDLE</title>
<path fill="none" stroke="black" d="M42,-1170C42,-1170 12,-1170 12,-1170 6,-1170 0,-1164 0,-1158 0,-1158 0,-1146 0,-1146 0,-1140 6,-1134 12,-1134 12,-1134 42,-1134 42,-1134 48,-1134 54,-1140 54,-1146 54,-1146 54,-1158 54,-1158 54,-1164 48,-1170 42,-1170"/>
<text text-anchor="middle" x="27" y="-1148.3" font-family="Times,serif" font-size="14.00">IDLE</text>
</g>
<!-- __start__&#45;&gt;IDLE -->
<g id="edge1" class="edge">
<title>__start__&#45;&gt;IDLE</title>
<path fill="none" stroke="black" d="M27,-1206.76C27,-1200.39 27,-1190.2 27,-1180.39"/>
<polygon fill="black" stroke="black" points="30.5,-1180.1 27,-1170.1 23.5,-1180.1 30.5,-1180.1"/>
</g>
<!-- SENDING_LOCK_INTENT -->
<g id="node4" class="node">
<title>SENDING_LOCK_INTENT</title>
<path fill="none" stroke="black" d="M256.5,-1076C256.5,-1076 79.5,-1076 79.5,-1076 73.5,-1076 67.5,-1070 67.5,-1064 67.5,-1064 67.5,-1052 67.5,-1052 67.5,-1046 73.5,-1040 79.5,-1040 79.5,-1040 256.5,-1040 256.5,-1040 262.5,-1040 268.5,-1046 268.5,-1052 268.5,-1052 268.5,-1064 268.5,-1064 268.5,-1070 262.5,-1076 256.5,-1076"/>
<text text-anchor="middle" x="168" y="-1054.3" font-family="Times,serif" font-size="14.00">SENDING_LOCK_INTENT</text>
</g>
<!-- IDLE&#45;&gt;SENDING_LOCK_INTENT -->
<g id="edge2" class="edge">
<title>IDLE&#45;&gt;SENDING_LOCK_INTENT</title>
<path fill="none" stroke="black" d="M53.19,-1133.91C75.7,-1119.22 108.35,-1097.92 133.08,-1081.78"/>
<polygon fill="black" stroke="black" points="135.01,-1084.71 141.47,-1076.31 131.18,-1078.84 135.01,-1084.71"/>
<text text-anchor="middle" x="183" y="-1108" font-family="Times,serif" font-size="10.00">initiate_lock</text>
<text text-anchor="middle" x="183" y="-1097" font-family="Times,serif" font-size="10.00">[has_provider_checkpoint]</text>
</g>
<!-- FAILED -->
<g id="node3" class="node">
<title>FAILED</title>
<path fill="none" stroke="black" stroke-width="2" d="M146.5,-556C146.5,-556 99.5,-556 99.5,-556 93.5,-556 87.5,-550 87.5,-544 87.5,-544 87.5,-532 87.5,-532 87.5,-526 93.5,-520 99.5,-520 99.5,-520 146.5,-520 146.5,-520 152.5,-520 158.5,-526 158.5,-532 158.5,-532 158.5,-544 158.5,-544 158.5,-550 152.5,-556 146.5,-556"/>
<text text-anchor="middle" x="123" y="-534.3" font-family="Times,serif" font-size="14.00">FAILED</text>
</g>
<!-- FAILED&#45;&gt;IDLE -->
<g id="edge21" class="edge">
<title>FAILED&#45;&gt;IDLE</title>
<path fill="none" stroke="black" d="M87.25,-548.54C54.48,-559.7 11,-581.73 11,-620 11,-1059 11,-1059 11,-1059 11,-1081.09 15.53,-1105.73 19.77,-1123.94"/>
<polygon fill="black" stroke="black" points="16.42,-1124.98 22.2,-1133.86 23.22,-1123.31 16.42,-1124.98"/>
<text text-anchor="middle" x="22.5" y="-842.5" font-family="Times,serif" font-size="10.00">auto</text>
</g>
<!-- WAITING_FOR_WITNESS_COMMITMENT -->
<g id="node5" class="node">
<title>WAITING_FOR_WITNESS_COMMITMENT</title>
<path fill="none" stroke="black" d="M341,-993C341,-993 51,-993 51,-993 45,-993 39,-987 39,-981 39,-981 39,-969 39,-969 39,-963 45,-957 51,-957 51,-957 341,-957 341,-957 347,-957 353,-963 353,-969 353,-969 353,-981 353,-981 353,-987 347,-993 341,-993"/>
<text text-anchor="middle" x="196" y="-971.3" font-family="Times,serif" font-size="14.00">WAITING_FOR_WITNESS_COMMITMENT</text>
</g>
<!-- SENDING_LOCK_INTENT&#45;&gt;WAITING_FOR_WITNESS_COMMITMENT -->
<g id="edge3" class="edge">
<title>SENDING_LOCK_INTENT&#45;&gt;WAITING_FOR_WITNESS_COMMITMENT</title>
<path fill="none" stroke="black" d="M173.94,-1039.82C177.65,-1029.08 182.51,-1015.03 186.72,-1002.84"/>
<polygon fill="black" stroke="black" points="190.11,-1003.75 190.07,-993.15 183.5,-1001.46 190.11,-1003.75"/>
<text text-anchor="middle" x="195.5" y="-1014" font-family="Times,serif" font-size="10.00">auto</text>
</g>
<!-- WAITING_FOR_WITNESS_COMMITMENT&#45;&gt;FAILED -->
<g id="edge5" class="edge">
<title>WAITING_FOR_WITNESS_COMMITMENT&#45;&gt;FAILED</title>
<path fill="none" stroke="black" d="M124.37,-956.88C93.78,-944.89 65,-925.09 65,-893 65,-893 65,-893 65,-620 65,-598.05 79.25,-577.96 93.62,-563.28"/>
<polygon fill="black" stroke="black" points="96.29,-565.57 101.07,-556.12 91.44,-560.52 96.29,-565.57"/>
<text text-anchor="middle" x="111" y="-748.5" font-family="Times,serif" font-size="10.00">LOCK_REJECTED</text>
</g>
<!-- WAITING_FOR_WITNESS_COMMITMENT&#45;&gt;FAILED -->
<g id="edge6" class="edge">
<title>WAITING_FOR_WITNESS_COMMITMENT&#45;&gt;FAILED</title>
<path fill="none" stroke="black" d="M190.58,-956.81C185.94,-940.55 180,-915.36 180,-893 180,-893 180,-893 180,-620 180,-598.18 166,-578.09 151.87,-563.38"/>
<polygon fill="black" stroke="black" points="154.14,-560.7 144.55,-556.19 149.24,-565.7 154.14,-560.7"/>
<text text-anchor="middle" x="300.5" y="-748.5" font-family="Times,serif" font-size="10.00">timeout(WITNESS_COMMITMENT_TIMEOUT)</text>
</g>
<!-- VERIFYING_PROVIDER_CHAIN -->
<g id="node6" class="node">
<title>VERIFYING_PROVIDER_CHAIN</title>
<path fill="none" stroke="black" d="M495,-910C495,-910 277,-910 277,-910 271,-910 265,-904 265,-898 265,-898 265,-886 265,-886 265,-880 271,-874 277,-874 277,-874 495,-874 495,-874 501,-874 507,-880 507,-886 507,-886 507,-898 507,-898 507,-904 501,-910 495,-910"/>
<text text-anchor="middle" x="386" y="-888.3" font-family="Times,serif" font-size="14.00">VERIFYING_PROVIDER_CHAIN</text>
</g>
<!-- WAITING_FOR_WITNESS_COMMITMENT&#45;&gt;VERIFYING_PROVIDER_CHAIN -->
<g id="edge4" class="edge">
<title>WAITING_FOR_WITNESS_COMMITMENT&#45;&gt;VERIFYING_PROVIDER_CHAIN</title>
<path fill="none" stroke="black" d="M236.29,-956.82C265.61,-944.32 305.48,-927.33 336.7,-914.02"/>
<polygon fill="black" stroke="black" points="338.26,-917.16 346.09,-910.01 335.52,-910.72 338.26,-917.16"/>
<text text-anchor="middle" x="405.5" y="-931" font-family="Times,serif" font-size="10.00">WITNESS_SELECTION_COMMITMENT</text>
</g>
<!-- VERIFYING_WITNESSES -->
<g id="node7" class="node">
<title>VERIFYING_WITNESSES</title>
<path fill="none" stroke="black" d="M515.5,-816C515.5,-816 342.5,-816 342.5,-816 336.5,-816 330.5,-810 330.5,-804 330.5,-804 330.5,-792 330.5,-792 330.5,-786 336.5,-780 342.5,-780 342.5,-780 515.5,-780 515.5,-780 521.5,-780 527.5,-786 527.5,-792 527.5,-792 527.5,-804 527.5,-804 527.5,-810 521.5,-816 515.5,-816"/>
<text text-anchor="middle" x="429" y="-794.3" font-family="Times,serif" font-size="14.00">VERIFYING_WITNESSES</text>
</g>
<!-- VERIFYING_PROVIDER_CHAIN&#45;&gt;VERIFYING_WITNESSES -->
<g id="edge7" class="edge">
<title>VERIFYING_PROVIDER_CHAIN&#45;&gt;VERIFYING_WITNESSES</title>
<path fill="none" stroke="black" d="M394.09,-873.7C400.45,-860.07 409.43,-840.86 416.69,-825.34"/>
<polygon fill="black" stroke="black" points="419.88,-826.77 420.95,-816.23 413.54,-823.8 419.88,-826.77"/>
<text text-anchor="middle" x="492" y="-848" font-family="Times,serif" font-size="10.00">auto</text>
<text text-anchor="middle" x="492" y="-837" font-family="Times,serif" font-size="10.00">[chain_segment_valid_and_c...]</text>
</g>
<!-- SENDING_REQUESTS -->
<g id="node8" class="node">
<title>SENDING_REQUESTS</title>
<path fill="none" stroke="black" d="M519.5,-722C519.5,-722 364.5,-722 364.5,-722 358.5,-722 352.5,-716 352.5,-710 352.5,-710 352.5,-698 352.5,-698 352.5,-692 358.5,-686 364.5,-686 364.5,-686 519.5,-686 519.5,-686 525.5,-686 531.5,-692 531.5,-698 531.5,-698 531.5,-710 531.5,-710 531.5,-716 525.5,-722 519.5,-722"/>
<text text-anchor="middle" x="442" y="-700.3" font-family="Times,serif" font-size="14.00">SENDING_REQUESTS</text>
</g>
<!-- VERIFYING_WITNESSES&#45;&gt;SENDING_REQUESTS -->
<g id="edge8" class="edge">
<title>VERIFYING_WITNESSES&#45;&gt;SENDING_REQUESTS</title>
<path fill="none" stroke="black" d="M431.45,-779.7C433.33,-766.33 435.98,-747.59 438.15,-732.22"/>
<polygon fill="black" stroke="black" points="441.63,-732.62 439.57,-722.23 434.7,-731.64 441.63,-732.62"/>
<text text-anchor="middle" x="500.5" y="-754" font-family="Times,serif" font-size="10.00">auto</text>
<text text-anchor="middle" x="500.5" y="-743" font-family="Times,serif" font-size="10.00">[witness_selection_valid]</text>
</g>
<!-- WAITING_FOR_RESULT -->
<g id="node9" class="node">
<title>WAITING_FOR_RESULT</title>
<path fill="none" stroke="black" d="M513,-639C513,-639 349,-639 349,-639 343,-639 337,-633 337,-627 337,-627 337,-615 337,-615 337,-609 343,-603 349,-603 349,-603 513,-603 513,-603 519,-603 525,-609 525,-615 525,-615 525,-627 525,-627 525,-633 519,-639 513,-639"/>
<text text-anchor="middle" x="431" y="-617.3" font-family="Times,serif" font-size="14.00">WAITING_FOR_RESULT</text>
</g>
<!-- SENDING_REQUESTS&#45;&gt;WAITING_FOR_RESULT -->
<g id="edge9" class="edge">
<title>SENDING_REQUESTS&#45;&gt;WAITING_FOR_RESULT</title>
<path fill="none" stroke="black" d="M439.67,-685.82C438.22,-675.19 436.34,-661.31 434.69,-649.2"/>
<polygon fill="black" stroke="black" points="438.14,-648.59 433.33,-639.15 431.21,-649.53 438.14,-648.59"/>
<text text-anchor="middle" x="448.5" y="-660" font-family="Times,serif" font-size="10.00">auto</text>
</g>
<!-- WAITING_FOR_RESULT&#45;&gt;FAILED -->
<g id="edge11" class="edge">
<title>WAITING_FOR_RESULT&#45;&gt;FAILED</title>
<path fill="none" stroke="black" d="M336.9,-606.48C305.76,-601.02 271.12,-593.88 240,-585 215.79,-578.09 189.65,-568.07 168.23,-559.15"/>
<polygon fill="black" stroke="black" points="169.32,-555.81 158.74,-555.14 166.59,-562.25 169.32,-555.81"/>
<text text-anchor="middle" x="333.5" y="-577" font-family="Times,serif" font-size="10.00">timeout(RECRUITMENT_TIMEOUT)</text>
</g>
<!-- REVIEWING_RESULT -->
<g id="node10" class="node">
<title>REVIEWING_RESULT</title>
<path fill="none" stroke="black" d="M505.5,-556C505.5,-556 356.5,-556 356.5,-556 350.5,-556 344.5,-550 344.5,-544 344.5,-544 344.5,-532 344.5,-532 344.5,-526 350.5,-520 356.5,-520 356.5,-520 505.5,-520 505.5,-520 511.5,-520 517.5,-526 517.5,-532 517.5,-532 517.5,-544 517.5,-544 517.5,-550 511.5,-556 505.5,-556"/>
<text text-anchor="middle" x="431" y="-534.3" font-family="Times,serif" font-size="14.00">REVIEWING_RESULT</text>
</g>
<!-- WAITING_FOR_RESULT&#45;&gt;REVIEWING_RESULT -->
<g id="edge10" class="edge">
<title>WAITING_FOR_RESULT&#45;&gt;REVIEWING_RESULT</title>
<path fill="none" stroke="black" d="M431,-602.82C431,-592.19 431,-578.31 431,-566.2"/>
<polygon fill="black" stroke="black" points="434.5,-566.15 431,-556.15 427.5,-566.15 434.5,-566.15"/>
<text text-anchor="middle" x="519" y="-577" font-family="Times,serif" font-size="10.00">LOCK_RESULT_FOR_SIGNATURE</text>
</g>
<!-- SIGNING_RESULT -->
<g id="node11" class="node">
<title>SIGNING_RESULT</title>
<path fill="none" stroke="black" d="M494,-462C494,-462 368,-462 368,-462 362,-462 356,-456 356,-450 356,-450 356,-438 356,-438 356,-432 362,-426 368,-426 368,-426 494,-426 494,-426 500,-426 506,-432 506,-438 506,-438 506,-450 506,-450 506,-456 500,-462 494,-462"/>
<text text-anchor="middle" x="431" y="-440.3" font-family="Times,serif" font-size="14.00">SIGNING_RESULT</text>
</g>
<!-- REVIEWING_RESULT&#45;&gt;SIGNING_RESULT -->
<g id="edge12" class="edge">
<title>REVIEWING_RESULT&#45;&gt;SIGNING_RESULT</title>
<path fill="none" stroke="black" d="M431,-519.7C431,-506.46 431,-487.95 431,-472.66"/>
<polygon fill="black" stroke="black" points="434.5,-472.23 431,-462.23 427.5,-472.23 434.5,-472.23"/>
<text text-anchor="middle" x="502.5" y="-494" font-family="Times,serif" font-size="10.00">auto</text>
<text text-anchor="middle" x="502.5" y="-483" font-family="Times,serif" font-size="10.00">[result_valid_and_accepted]</text>
</g>
<!-- LOCKED -->
<g id="node12" class="node">
<title>LOCKED</title>
<path fill="none" stroke="black" d="M459,-379C459,-379 403,-379 403,-379 397,-379 391,-373 391,-367 391,-367 391,-355 391,-355 391,-349 397,-343 403,-343 403,-343 459,-343 459,-343 465,-343 471,-349 471,-355 471,-355 471,-367 471,-367 471,-373 465,-379 459,-379"/>
<text text-anchor="middle" x="431" y="-357.3" font-family="Times,serif" font-size="14.00">LOCKED</text>
</g>
<!-- SIGNING_RESULT&#45;&gt;LOCKED -->
<g id="edge13" class="edge">
<title>SIGNING_RESULT&#45;&gt;LOCKED</title>
<path fill="none" stroke="black" d="M431,-425.82C431,-415.19 431,-401.31 431,-389.2"/>
<polygon fill="black" stroke="black" points="434.5,-389.15 431,-379.15 427.5,-389.15 434.5,-389.15"/>
<text text-anchor="middle" x="442.5" y="-400" font-family="Times,serif" font-size="10.00">auto</text>
</g>
<!-- LOCKED&#45;&gt;LOCKED -->
<g id="edge14" class="edge">
<title>LOCKED&#45;&gt;LOCKED</title>
<path fill="none" stroke="black" d="M471.12,-368.41C481.33,-367.92 489,-365.45 489,-361 489,-358.22 486,-356.21 481.26,-354.97"/>
<polygon fill="black" stroke="black" points="481.5,-351.47 471.12,-353.59 480.55,-358.41 481.5,-351.47"/>
<text text-anchor="middle" x="533.5" y="-358.5" font-family="Times,serif" font-size="10.00">LIVENESS_PING</text>
</g>
<!-- SENDING_TOPUP -->
<g id="node13" class="node">
<title>SENDING_TOPUP</title>
<path fill="none" stroke="black" d="M383,-296C383,-296 261,-296 261,-296 255,-296 249,-290 249,-284 249,-284 249,-272 249,-272 249,-266 255,-260 261,-260 261,-260 383,-260 383,-260 389,-260 395,-266 395,-272 395,-272 395,-284 395,-284 395,-290 389,-296 383,-296"/>
<text text-anchor="middle" x="322" y="-274.3" font-family="Times,serif" font-size="14.00">SENDING_TOPUP</text>
</g>
<!-- LOCKED&#45;&gt;SENDING_TOPUP -->
<g id="edge15" class="edge">
<title>LOCKED&#45;&gt;SENDING_TOPUP</title>
<path fill="none" stroke="black" d="M390.95,-349.94C375.52,-344.52 358.61,-336.52 346,-325 340.15,-319.65 335.48,-312.55 331.88,-305.52"/>
<polygon fill="black" stroke="black" points="334.95,-303.81 327.62,-296.17 328.58,-306.72 334.95,-303.81"/>
<text text-anchor="middle" x="381.5" y="-317" font-family="Times,serif" font-size="10.00">initiate_topup</text>
</g>
<!-- WAITING_FOR_TOPUP_RESULT -->
<g id="node14" class="node">
<title>WAITING_FOR_TOPUP_RESULT</title>
<path fill="none" stroke="black" d="M541.5,-213C541.5,-213 320.5,-213 320.5,-213 314.5,-213 308.5,-207 308.5,-201 308.5,-201 308.5,-189 308.5,-189 308.5,-183 314.5,-177 320.5,-177 320.5,-177 541.5,-177 541.5,-177 547.5,-177 553.5,-183 553.5,-189 553.5,-189 553.5,-201 553.5,-201 553.5,-207 547.5,-213 541.5,-213"/>
<text text-anchor="middle" x="431" y="-191.3" font-family="Times,serif" font-size="14.00">WAITING_FOR_TOPUP_RESULT</text>
</g>
<!-- SENDING_TOPUP&#45;&gt;WAITING_FOR_TOPUP_RESULT -->
<g id="edge16" class="edge">
<title>SENDING_TOPUP&#45;&gt;WAITING_FOR_TOPUP_RESULT</title>
<path fill="none" stroke="black" d="M345.12,-259.82C361.01,-248.01 382.31,-232.18 399.72,-219.24"/>
<polygon fill="black" stroke="black" points="401.98,-221.93 407.92,-213.15 397.8,-216.31 401.98,-221.93"/>
<text text-anchor="middle" x="394.5" y="-234" font-family="Times,serif" font-size="10.00">auto</text>
</g>
<!-- WAITING_FOR_TOPUP_RESULT&#45;&gt;LOCKED -->
<g id="edge18" class="edge">
<title>WAITING_FOR_TOPUP_RESULT&#45;&gt;LOCKED</title>
<path fill="none" stroke="black" d="M431,-213.01C431,-241.35 431,-298.48 431,-332.57"/>
<polygon fill="black" stroke="black" points="427.5,-332.76 431,-342.76 434.5,-332.76 427.5,-332.76"/>
<text text-anchor="middle" x="518" y="-275.5" font-family="Times,serif" font-size="10.00">timeout(CONSENSUS_TIMEOUT)</text>
</g>
<!-- REVIEWING_TOPUP_RESULT -->
<g id="node15" class="node">
<title>REVIEWING_TOPUP_RESULT</title>
<path fill="none" stroke="black" d="M566,-130C566,-130 360,-130 360,-130 354,-130 348,-124 348,-118 348,-118 348,-106 348,-106 348,-100 354,-94 360,-94 360,-94 566,-94 566,-94 572,-94 578,-100 578,-106 578,-106 578,-118 578,-118 578,-124 572,-130 566,-130"/>
<text text-anchor="middle" x="463" y="-108.3" font-family="Times,serif" font-size="14.00">REVIEWING_TOPUP_RESULT</text>
</g>
<!-- WAITING_FOR_TOPUP_RESULT&#45;&gt;REVIEWING_TOPUP_RESULT -->
<g id="edge17" class="edge">
<title>WAITING_FOR_TOPUP_RESULT&#45;&gt;REVIEWING_TOPUP_RESULT</title>
<path fill="none" stroke="black" d="M430.67,-176.86C431.03,-167.96 432.34,-157.09 436,-148 437.3,-144.77 438.99,-141.58 440.88,-138.53"/>
<polygon fill="black" stroke="black" points="443.75,-140.54 446.64,-130.34 438.02,-136.51 443.75,-140.54"/>
<text text-anchor="middle" x="527.5" y="-151" font-family="Times,serif" font-size="10.00">TOPUP_RESULT_FOR_SIGNATURE</text>
</g>
<!-- SIGNING_TOPUP -->
<g id="node16" class="node">
<title>SIGNING_TOPUP</title>
<path fill="none" stroke="black" d="M620.5,-36C620.5,-36 503.5,-36 503.5,-36 497.5,-36 491.5,-30 491.5,-24 491.5,-24 491.5,-12 491.5,-12 491.5,-6 497.5,0 503.5,0 503.5,0 620.5,0 620.5,0 626.5,0 632.5,-6 632.5,-12 632.5,-12 632.5,-24 632.5,-24 632.5,-30 626.5,-36 620.5,-36"/>
<text text-anchor="middle" x="562" y="-14.3" font-family="Times,serif" font-size="14.00">SIGNING_TOPUP</text>
</g>
<!-- REVIEWING_TOPUP_RESULT&#45;&gt;SIGNING_TOPUP -->
<g id="edge19" class="edge">
<title>REVIEWING_TOPUP_RESULT&#45;&gt;SIGNING_TOPUP</title>
<path fill="none" stroke="black" d="M477.59,-93.81C487.86,-82.11 502.18,-66.52 516,-54 520.38,-50.03 525.19,-46.03 529.98,-42.23"/>
<polygon fill="black" stroke="black" points="532.2,-44.94 537.98,-36.06 527.92,-39.4 532.2,-44.94"/>
<text text-anchor="middle" x="567.5" y="-68" font-family="Times,serif" font-size="10.00">auto</text>
<text text-anchor="middle" x="567.5" y="-57" font-family="Times,serif" font-size="10.00">[topup_result_valid]</text>
</g>
<!-- SIGNING_TOPUP&#45;&gt;LOCKED -->
<g id="edge20" class="edge">
<title>SIGNING_TOPUP&#45;&gt;LOCKED</title>
<path fill="none" stroke="black" d="M599.19,-36C606.66,-40.89 613.8,-46.87 619,-54 634.38,-75.07 633,-84.91 633,-111 633,-279 633,-279 633,-279 633,-344.18 541.26,-358.3 481.43,-360.57"/>
<polygon fill="black" stroke="black" points="481.29,-357.07 471.39,-360.86 481.49,-364.07 481.29,-357.07"/>
<text text-anchor="middle" x="644.5" y="-192.5" font-family="Times,serif" font-size="10.00">auto</text>
</g>
</g>
</svg>
