<?xml version="1.0" encoding="UTF-8" standalone="no"?>
<!DOCTYPE svg PUBLIC "-//W3C//DTD SVG 1.1//EN"
 "http://www.w3.org/Graphics/SVG/1.1/DTD/svg11.dtd">
<!-- Generated by graphviz version 2.43.0 (0)
 -->
<!-- Title: %3 Pages: 1 -->
<svg width="641pt" height="1229pt"
 viewBox="0.00 0.00 641.00 1229.40" xmlns="http://www.w3.org/2000/svg" xmlns:xlink="http://www.w3.org/1999/xlink">
<g id="graph0" class="graph" transform="scale(1 1) rotate(0) translate(4 1225.4)">
<title>%3</title>
<polygon fill="white" stroke="transparent" points="-4,4 -4,-1225.4 637,-1225.4 637,4 -4,4"/>
<!-- __start__ -->
<g id="node1" class="node">
<title>__start__</title>
<ellipse fill="black" stroke="black" cx="157" cy="-1214.2" rx="7.2" ry="7.2"/>
</g>
<!-- IDLE -->
<g id="node2" class="node">
<title>IDLE</title>
<path fill="none" stroke="black" d="M172,-1170C172,-1170 142,-1170 142,-1170 136,-1170 130,-1164 130,-1158 130,-1158 130,-1146 130,-1146 130,-1140 136,-1134 142,-1134 142,-1134 172,-1134 172,-1134 178,-1134 184,-1140 184,-1146 184,-1146 184,-1158 184,-1158 184,-1164 178,-1170 172,-1170"/>
<text text-anchor="middle" x="157" y="-1148.3" font-family="Times,serif" font-size="14.00">IDLE</text>
</g>
<!-- __start__&#45;&gt;IDLE -->
<g id="edge1" class="edge">
<title>__start__&#45;&gt;IDLE</title>
<path fill="none" stroke="black" d="M157,-1206.76C157,-1200.39 157,-1190.2 157,-1180.39"/>
<polygon fill="black" stroke="black" points="160.5,-1180.1 157,-1170.1 153.5,-1180.1 160.5,-1180.1"/>
</g>
<!-- SENDING_LOCK_INTENT -->
<g id="node4" class="node">
<title>SENDING_LOCK_INTENT</title>
<path fill="none" stroke="black" d="M245.5,-1076C245.5,-1076 68.5,-1076 68.5,-1076 62.5,-1076 56.5,-1070 56.5,-1064 56.5,-1064 56.5,-1052 56.5,-1052 56.5,-1046 62.5,-1040 68.5,-1040 68.5,-1040 245.5,-1040 245.5,-1040 251.5,-1040 257.5,-1046 257.5,-1052 257.5,-1052 257.5,-1064 257.5,-1064 257.5,-1070 251.5,-1076 245.5,-1076"/>
<text text-anchor="middle" x="157" y="-1054.3" font-family="Times,serif" font-size="14.00">SENDING_LOCK_INTENT</text>
</g>
<!-- IDLE&#45;&gt;SENDING_LOCK_INTENT -->
<g id="edge2" class="edge">
<title>IDLE&#45;&gt;SENDING_LOCK_INTENT</title>
<path fill="none" stroke="black" d="M157,-1133.7C157,-1120.46 157,-1101.95 157,-1086.66"/>
<polygon fill="black" stroke="black" points="160.5,-1086.23 157,-1076.23 153.5,-1086.23 160.5,-1086.23"/>
<text text-anchor="middle" x="225" y="-1108" font-family="Times,serif" font-size="10.00">initiate_lock</text>
<text text-anchor="middle" x="225" y="-1097" font-family="Times,serif" font-size="10.00">[has_provider_checkpoint]</text>
</g>
<!-- FAILED -->
<g id="node3" class="node">
<title>FAILED</title>
<path fill="none" stroke="black" stroke-width="2" d="M180.5,-556C180.5,-556 133.5,-556 133.5,-556 127.5,-556 121.5,-550 121.5,-544 121.5,-544 121.5,-532 121.5,-532 121.5,-526 127.5,-520 133.5,-520 133.5,-520 180.5,-520 180.5,-520 186.5,-520 192.5,-526 192.5,-532 192.5,-532 192.5,-544 192.5,-544 192.5,-550 186.5,-556 180.5,-556"/>
<text text-anchor="middle" x="157" y="-534.3" font-family="Times,serif" font-size="14.00">FAILED</text>
</g>
<!-- WAITING_FOR_WITNESS_COMMITMENT -->
<g id="node5" class="node">
<title>WAITING_FOR_WITNESS_COMMITMENT</title>
<path fill="none" stroke="black" d="M302,-993C302,-993 12,-993 12,-993 6,-993 0,-987 0,-981 0,-981 0,-969 0,-969 0,-963 6,-957 12,-957 12,-957 302,-957 302,-957 308,-957 314,-963 314,-969 314,-969 314,-981 314,-981 314,-987 308,-993 302,-993"/>
<text text-anchor="middle" x="157" y="-971.3" font-family="Times,serif" font-size="14.00">WAITING_FOR_WITNESS_COMMITMENT</text>
</g>
<!-- SENDING_LOCK_INTENT&#45;&gt;WAITING_FOR_WITNESS_COMMITMENT -->
<g id="edge3" class="edge">
<title>SENDING_LOCK_INTENT&#45;&gt;WAITING_FOR_WITNESS_COMMITMENT</title>
<path fill="none" stroke="black" d="M157,-1039.82C157,-1029.19 157,-1015.31 157,-1003.2"/>
<polygon fill="black" stroke="black" points="160.5,-1003.15 157,-993.15 153.5,-1003.15 160.5,-1003.15"/>
<text text-anchor="middle" x="168.5" y="-1014" font-family="Times,serif" font-size="10.00">auto</text>
</g>
<!-- WAITING_FOR_WITNESS_COMMITMENT&#45;&gt;FAILED -->
<g id="edge5" class="edge">
<title>WAITING_FOR_WITNESS_COMMITMENT&#45;&gt;FAILED</title>
<path fill="none" stroke="black" d="M99.5,-956.94C70.75,-944.51 42,-924.26 42,-893 42,-893 42,-893 42,-620 42,-584.37 79.36,-563.04 111.49,-551.29"/>
<polygon fill="black" stroke="black" points="112.92,-554.5 121.24,-547.94 110.65,-547.87 112.92,-554.5"/>
<text text-anchor="middle" x="88" y="-748.5" font-family="Times,serif" font-size="10.00">LOCK_REJECTED</text>
</g>
<!-- WAITING_FOR_WITNESS_COMMITMENT&#45;&gt;FAILED -->
<g id="edge6" class="edge">
<title>WAITING_FOR_WITNESS_COMMITMENT&#45;&gt;FAILED</title>
<path fill="none" stroke="black" d="M157,-956.93C157,-940.54 157,-915.08 157,-893 157,-893 157,-893 157,-620 157,-602.06 157,-581.89 157,-566.16"/>
<polygon fill="black" stroke="black" points="160.5,-566.07 157,-556.07 153.5,-566.07 160.5,-566.07"/>
<text text-anchor="middle" x="277.5" y="-748.5" font-family="Times,serif" font-size="10.00">timeout(WITNESS_COMMITMENT_TIMEOUT)</text>
</g>
<!-- VERIFYING_PROVIDER_CHAIN -->
<g id="node6" class="node">
<title>VERIFYING_PROVIDER_CHAIN</title>
<path fill="none" stroke="black" d="M472,-910C472,-910 254,-910 254,-910 248,-910 242,-904 242,-898 242,-898 242,-886 242,-886 242,-880 248,-874 254,-874 254,-874 472,-874 472,-874 478,-874 484,-880 484,-886 484,-886 484,-898 484,-898 484,-904 478,-910 472,-910"/>
<text text-anchor="middle" x="363" y="-888.3" font-family="Times,serif" font-size="14.00">VERIFYING_PROVIDER_CHAIN</text>
</g>
<!-- WAITING_FOR_WITNESS_COMMITMENT&#45;&gt;VERIFYING_PROVIDER_CHAIN -->
<g id="edge4" class="edge">
<title>WAITING_FOR_WITNESS_COMMITMENT&#45;&gt;VERIFYING_PROVIDER_CHAIN</title>
<path fill="none" stroke="black" d="M200.44,-956.92C232.48,-944.32 276.25,-927.11 310.3,-913.72"/>
<polygon fill="black" stroke="black" points="311.6,-916.97 319.62,-910.06 309.04,-910.46 311.6,-916.97"/>
<text text-anchor="middle" x="375.5" y="-931" font-family="Times,serif" font-size="10.00">WITNESS_SELECTION_COMMITMENT</text>
</g>
<!-- VERIFYING_WITNESSES -->
<g id="node7" class="node">
<title>VERIFYING_WITNESSES</title>
<path fill="none" stroke="black" d="M492.5,-816C492.5,-816 319.5,-816 319.5,-816 313.5,-816 307.5,-810 307.5,-804 307.5,-804 307.5,-792 307.5,-792 307.5,-786 313.5,-780 319.5,-780 319.5,-780 492.5,-780 492.5,-780 498.5,-780 504.5,-786 504.5,-792 504.5,-792 504.5,-804 504.5,-804 504.5,-810 498.5,-816 492.5,-816"/>
<text text-anchor="middle" x="406" y="-794.3" font-family="Times,serif" font-size="14.00">VERIFYING_WITNESSES</text>
</g>
<!-- VERIFYING_PROVIDER_CHAIN&#45;&gt;VERIFYING_WITNESSES -->
<g id="edge7" class="edge">
<title>VERIFYING_PROVIDER_CHAIN&#45;&gt;VERIFYING_WITNESSES</title>
<path fill="none" stroke="black" d="M371.09,-873.7C377.45,-860.07 386.43,-840.86 393.69,-825.34"/>
<polygon fill="black" stroke="black" points="396.88,-826.77 397.95,-816.23 390.54,-823.8 396.88,-826.77"/>
<text text-anchor="middle" x="469" y="-848" font-family="Times,serif" font-size="10.00">auto</text>
<text text-anchor="middle" x="469" y="-837" font-family="Times,serif" font-size="10.00">[chain_segment_valid_and_c...]</text>
</g>
<!-- SENDING_REQUESTS -->
<g id="node8" class="node">
<title>SENDING_REQUESTS</title>
<path fill="none" stroke="black" d="M496.5,-722C496.5,-722 341.5,-722 341.5,-722 335.5,-722 329.5,-716 329.5,-710 329.5,-710 329.5,-698 329.5,-698 329.5,-692 335.5,-686 341.5,-686 341.5,-686 496.5,-686 496.5,-686 502.5,-686 508.5,-692 508.5,-698 508.5,-698 508.5,-710 508.5,-710 508.5,-716 502.5,-722 496.5,-722"/>
<text text-anchor="middle" x="419" y="-700.3" font-family="Times,serif" font-size="14.00">SENDING_REQUESTS</text>
</g>
<!-- VERIFYING_WITNESSES&#45;&gt;SENDING_REQUESTS -->
<g id="edge8" class="edge">
<title>VERIFYING_WITNESSES&#45;&gt;SENDING_REQUESTS</title>
<path fill="none" stroke="black" d="M408.45,-779.7C410.33,-766.33 412.98,-747.59 415.15,-732.22"/>
<polygon fill="black" stroke="black" points="418.63,-732.62 416.57,-722.23 411.7,-731.64 418.63,-732.62"/>
<text text-anchor="middle" x="477.5" y="-754" font-family="Times,serif" font-size="10.00">auto</text>
<text text-anchor="middle" x="477.5" y="-743" font-family="Times,serif" font-size="10.00">[witness_selection_valid]</text>
</g>
<!-- WAITING_FOR_RESULT -->
<g id="node9" class="node">
<title>WAITING_FOR_RESULT</title>
<path fill="none" stroke="black" d="M490,-639C490,-639 326,-639 326,-639 320,-639 314,-633 314,-627 314,-627 314,-615 314,-615 314,-609 320,-603 326,-603 326,-603 490,-603 490,-603 496,-603 502,-609 502,-615 502,-615 502,-627 502,-627 502,-633 496,-639 490,-639"/>
<text text-anchor="middle" x="408" y="-617.3" font-family="Times,serif" font-size="14.00">WAITING_FOR_RESULT</text>
</g>
<!-- SENDING_REQUESTS&#45;&gt;WAITING_FOR_RESULT -->
<g id="edge9" class="edge">
<title>SENDING_REQUESTS&#45;&gt;WAITING_FOR_RESULT</title>
<path fill="none" stroke="black" d="M416.67,-685.82C415.22,-675.19 413.34,-661.31 411.69,-649.2"/>
<polygon fill="black" stroke="black" points="415.14,-648.59 410.33,-639.15 408.21,-649.53 415.14,-648.59"/>
<text text-anchor="middle" x="425.5" y="-660" font-family="Times,serif" font-size="10.00">auto</text>
</g>
<!-- WAITING_FOR_RESULT&#45;&gt;FAILED -->
<g id="edge11" class="edge">
<title>WAITING_FOR_RESULT&#45;&gt;FAILED</title>
<path fill="none" stroke="black" d="M313.56,-611.7C281.91,-606.59 247.04,-598.33 217,-585 204.6,-579.5 192.43,-570.94 182.33,-562.69"/>
<polygon fill="black" stroke="black" points="184.59,-560.02 174.7,-556.2 180.05,-565.35 184.59,-560.02"/>
<text text-anchor="middle" x="310.5" y="-577" font-family="Times,serif" font-size="10.00">timeout(RECRUITMENT_TIMEOUT)</text>
</g>
<!-- REVIEWING_RESULT -->
<g id="node10" class="node">
<title>REVIEWING_RESULT</title>
<path fill="none" stroke="black" d="M482.5,-556C482.5,-556 333.5,-556 333.5,-556 327.5,-556 321.5,-550 321.5,-544 321.5,-544 321.5,-532 321.5,-532 321.5,-526 327.5,-520 333.5,-520 333.5,-520 482.5,-520 482.5,-520 488.5,-520 494.5,-526 494.5,-532 494.5,-532 494.5,-544 494.5,-544 494.5,-550 488.5,-556 482.5,-556"/>
<text text-anchor="middle" x="408" y="-534.3" font-family="Times,serif" font-size="14.00">REVIEWING_RESULT</text>
</g>
<!-- WAITING_FOR_RESULT&#45;&gt;REVIEWING_RESULT -->
<g id="edge10" class="edge">
<title>WAITING_FOR_RESULT&#45;&gt;REVIEWING_RESULT</title>
<path fill="none" stroke="black" d="M408,-602.82C408,-592.19 408,-578.31 408,-566.2"/>
<polygon fill="black" stroke="black" points="411.5,-566.15 408,-556.15 404.5,-566.15 411.5,-566.15"/>
<text text-anchor="middle" x="496" y="-577" font-family="Times,serif" font-size="10.00">LOCK_RESULT_FOR_SIGNATURE</text>
</g>
<!-- SIGNING_RESULT -->
<g id="node11" class="node">
<title>SIGNING_RESULT</title>
<path fill="none" stroke="black" d="M471,-462C471,-462 345,-462 345,-462 339,-462 333,-456 333,-450 333,-450 333,-438 333,-438 333,-432 339,-426 345,-426 345,-426 471,-426 471,-426 477,-426 483,-432 483,-438 483,-438 483,-450 483,-450 483,-456 477,-462 471,-462"/>
<text text-anchor="middle" x="408" y="-440.3" font-family="Times,serif" font-size="14.00">SIGNING_RESULT</text>
</g>
<!-- REVIEWING_RESULT&#45;&gt;SIGNING_RESULT -->
<g id="edge12" class="edge">
<title>REVIEWING_RESULT&#45;&gt;SIGNING_RESULT</title>
<path fill="none" stroke="black" d="M408,-519.7C408,-506.46 408,-487.95 408,-472.66"/>
<polygon fill="black" stroke="black" points="411.5,-472.23 408,-462.23 404.5,-472.23 411.5,-472.23"/>
<text text-anchor="middle" x="479.5" y="-494" font-family="Times,serif" font-size="10.00">auto</text>
<text text-anchor="middle" x="479.5" y="-483" font-family="Times,serif" font-size="10.00">[result_valid_and_accepted]</text>
</g>
<!-- LOCKED -->
<g id="node12" class="node">
<title>LOCKED</title>
<path fill="none" stroke="black" d="M436,-379C436,-379 380,-379 380,-379 374,-379 368,-373 368,-367 368,-367 368,-355 368,-355 368,-349 374,-343 380,-343 380,-343 436,-343 436,-343 442,-343 448,-349 448,-355 448,-355 448,-367 448,-367 448,-373 442,-379 436,-379"/>
<text text-anchor="middle" x="408" y="-357.3" font-family="Times,serif" font-size="14.00">LOCKED</text>
</g>
<!-- SIGNING_RESULT&#45;&gt;LOCKED -->
<g id="edge13" class="edge">
<title>SIGNING_RESULT&#45;&gt;LOCKED</title>
<path fill="none" stroke="black" d="M408,-425.82C408,-415.19 408,-401.31 408,-389.2"/>
<polygon fill="black" stroke="black" points="411.5,-389.15 408,-379.15 404.5,-389.15 411.5,-389.15"/>
<text text-anchor="middle" x="419.5" y="-400" font-family="Times,serif" font-size="10.00">auto</text>
</g>
<!-- LOCKED&#45;&gt;LOCKED -->
<g id="edge14" class="edge">
<title>LOCKED&#45;&gt;LOCKED</title>
<path fill="none" stroke="black" d="M448.12,-368.41C458.33,-367.92 466,-365.45 466,-361 466,-358.22 463,-356.21 458.26,-354.97"/>
<polygon fill="black" stroke="black" points="458.5,-351.47 448.12,-353.59 457.55,-358.41 458.5,-351.47"/>
<text text-anchor="middle" x="510.5" y="-358.5" font-family="Times,serif" font-size="10.00">LIVENESS_PING</text>
</g>
<!-- SENDING_TOPUP -->
<g id="node13" class="node">
<title>SENDING_TOPUP</title>
<path fill="none" stroke="black" d="M360,-296C360,-296 238,-296 238,-296 232,-296 226,-290 226,-284 226,-284 226,-272 226,-272 226,-266 232,-260 238,-260 238,-260 360,-260 360,-260 366,-260 372,-266 372,-272 372,-272 372,-284 372,-284 372,-290 366,-296 360,-296"/>
<text text-anchor="middle" x="299" y="-274.3" font-family="Times,serif" font-size="14.00">SENDING_TOPUP</text>
</g>
<!-- LOCKED&#45;&gt;SENDING_TOPUP -->
<g id="edge15" class="edge">
<title>LOCKED&#45;&gt;SENDING_TOPUP</title>
<path fill="none" stroke="black" d="M367.95,-349.94C352.52,-344.52 335.61,-336.52 323,-325 317.15,-319.65 312.48,-312.55 308.88,-305.52"/>
<polygon fill="black" stroke="black" points="311.95,-303.81 304.62,-296.17 305.58,-306.72 311.95,-303.81"/>
<text text-anchor="middle" x="358.5" y="-317" font-family="Times,serif" font-size="10.00">initiate_topup</text>
</g>
<!-- WAITING_FOR_TOPUP_RESULT -->
<g id="node14" class="node">
<title>WAITING_FOR_TOPUP_RESULT</title>
<path fill="none" stroke="black" d="M518.5,-213C518.5,-213 297.5,-213 297.5,-213 291.5,-213 285.5,-207 285.5,-201 285.5,-201 285.5,-189 285.5,-189 285.5,-183 291.5,-177 297.5,-177 297.5,-177 518.5,-177 518.5,-177 524.5,-177 530.5,-183 530.5,-189 530.5,-189 530.5,-201 530.5,-201 530.5,-207 524.5,-213 518.5,-213"/>
<text text-anchor="middle" x="408" y="-191.3" font-family="Times,serif" font-size="14.00">WAITING_FOR_TOPUP_RESULT</text>
</g>
<!-- SENDING_TOPUP&#45;&gt;WAITING_FOR_TOPUP_RESULT -->
<g id="edge16" class="edge">
<title>SENDING_TOPUP&#45;&gt;WAITING_FOR_TOPUP_RESULT</title>
<path fill="none" stroke="black" d="M322.12,-259.82C338.01,-248.01 359.31,-232.18 376.72,-219.24"/>
<polygon fill="black" stroke="black" points="378.98,-221.93 384.92,-213.15 374.8,-216.31 378.98,-221.93"/>
<text text-anchor="middle" x="371.5" y="-234" font-family="Times,serif" font-size="10.00">auto</text>
</g>
<!-- WAITING_FOR_TOPUP_RESULT&#45;&gt;LOCKED -->
<g id="edge18" class="edge">
<title>WAITING_FOR_TOPUP_RESULT&#45;&gt;LOCKED</title>
<path fill="none" stroke="black" d="M408,-213.01C408,-241.35 408,-298.48 408,-332.57"/>
<polygon fill="black" stroke="black" points="404.5,-332.76 408,-342.76 411.5,-332.76 404.5,-332.76"/>
<text text-anchor="middle" x="495" y="-275.5" font-family="Times,serif" font-size="10.00">timeout(CONSENSUS_TIMEOUT)</text>
</g>
<!-- REVIEWING_TOPUP_RESULT -->
<g id="node15" class="node">
<title>REVIEWING_TOPUP_RESULT</title>
<path fill="none" stroke="black" d="M543,-130C543,-130 337,-130 337,-130 331,-130 325,-124 325,-118 325,-118 325,-106 325,-106 325,-100 331,-94 337,-94 337,-94 543,-94 543,-94 549,-94 555,-100 555,-106 555,-106 555,-118 555,-118 555,-124 549,-130 543,-130"/>
<text text-anchor="middle" x="440" y="-108.3" font-family="Times,serif" font-size="14.00">REVIEWING_TOPUP_RESULT</text>
</g>
<!-- WAITING_FOR_TOPUP_RESULT&#45;&gt;REVIEWING_TOPUP_RESULT -->
<g id="edge17" class="edge">
<title>WAITING_FOR_TOPUP_RESULT&#45;&gt;REVIEWING_TOPUP_RESULT</title>
<path fill="none" stroke="black" d="M407.67,-176.86C408.03,-167.96 409.34,-157.09 413,-148 414.3,-144.77 415.99,-141.58 417.88,-138.53"/>
<polygon fill="black" stroke="black" points="420.75,-140.54 423.64,-130.34 415.02,-136.51 420.75,-140.54"/>
<text text-anchor="middle" x="504.5" y="-151" font-family="Times,serif" font-size="10.00">TOPUP_RESULT_FOR_SIGNATURE</text>
</g>
<!-- SIGNING_TOPUP -->
<g id="node16" class="node">
<title>SIGNING_TOPUP</title>
<path fill="none" stroke="black" d="M597.5,-36C597.5,-36 480.5,-36 480.5,-36 474.5,-36 468.5,-30 468.5,-24 468.5,-24 468.5,-12 468.5,-12 468.5,-6 474.5,0 480.5,0 480.5,0 597.5,0 597.5,0 603.5,0 609.5,-6 609.5,-12 609.5,-12 609.5,-24 609.5,-24 609.5,-30 603.5,-36 597.5,-36"/>
<text text-anchor="middle" x="539" y="-14.3" font-family="Times,serif" font-size="14.00">SIGNING_TOPUP</text>
</g>
<!-- REVIEWING_TOPUP_RESULT&#45;&gt;SIGNING_TOPUP -->
<g id="edge19" class="edge">
<title>REVIEWING_TOPUP_RESULT&#45;&gt;SIGNING_TOPUP</title>
<path fill="none" stroke="black" d="M454.59,-93.81C464.86,-82.11 479.18,-66.52 493,-54 497.38,-50.03 502.19,-46.03 506.98,-42.23"/>
<polygon fill="black" stroke="black" points="509.2,-44.94 514.98,-36.06 504.92,-39.4 509.2,-44.94"/>
<text text-anchor="middle" x="544.5" y="-68" font-family="Times,serif" font-size="10.00">auto</text>
<text text-anchor="middle" x="544.5" y="-57" font-family="Times,serif" font-size="10.00">[topup_result_valid]</text>
</g>
<!-- SIGNING_TOPUP&#45;&gt;LOCKED -->
<g id="edge20" class="edge">
<title>SIGNING_TOPUP&#45;&gt;LOCKED</title>
<path fill="none" stroke="black" d="M576.19,-36C583.66,-40.89 590.8,-46.87 596,-54 611.38,-75.07 610,-84.91 610,-111 610,-279 610,-279 610,-279 610,-344.18 518.26,-358.3 458.43,-360.57"/>
<polygon fill="black" stroke="black" points="458.29,-357.07 448.39,-360.86 458.49,-364.07 458.29,-357.07"/>
<text text-anchor="middle" x="621.5" y="-192.5" font-family="Times,serif" font-size="10.00">auto</text>
</g>
</g>
</svg>
