<?xml version="1.0" encoding="UTF-8" standalone="no"?>
<!DOCTYPE svg PUBLIC "-//W3C//DTD SVG 1.1//EN"
 "http://www.w3.org/Graphics/SVG/1.1/DTD/svg11.dtd">
<!-- Generated by graphviz version 2.43.0 (0)
 -->
<!-- Title: %3 Pages: 1 -->
<svg width="507pt" height="344pt"
 viewBox="0.00 0.00 507.00 344.40" xmlns="http://www.w3.org/2000/svg" xmlns:xlink="http://www.w3.org/1999/xlink">
<g id="graph0" class="graph" transform="scale(1 1) rotate(0) translate(4 340.4)">
<title>%3</title>
<polygon fill="white" stroke="transparent" points="-4,4 -4,-340.4 503,-340.4 503,4 -4,4"/>
<!-- __start__ -->
<g id="node1" class="node">
<title>__start__</title>
<ellipse fill="black" stroke="black" cx="300" cy="-329.2" rx="7.2" ry="7.2"/>
</g>
<!-- WAITING_FOR_VM -->
<g id="node2" class="node">
<title>WAITING_FOR_VM</title>
<path fill="none" stroke="black" d="M364,-285C364,-285 236,-285 236,-285 230,-285 224,-279 224,-273 224,-273 224,-261 224,-261 224,-255 230,-249 236,-249 236,-249 364,-249 364,-249 370,-249 376,-255 376,-261 376,-261 376,-273 376,-273 376,-279 370,-285 364,-285"/>
<text text-anchor="middle" x="300" y="-263.3" font-family="Times,serif" font-size="14.00">WAITING_FOR_VM</text>
</g>
<!-- __start__&#45;&gt;WAITING_FOR_VM -->
<g id="edge1" class="edge">
<title>__start__&#45;&gt;WAITING_FOR_VM</title>
<path fill="none" stroke="black" d="M300,-321.76C300,-315.39 300,-305.2 300,-295.39"/>
<polygon fill="black" stroke="black" points="303.5,-295.1 300,-285.1 296.5,-295.1 303.5,-295.1"/>
</g>
<!-- WAITING_FOR_VM&#45;&gt;WAITING_FOR_VM -->
<g id="edge2" class="edge">
<title>WAITING_FOR_VM&#45;&gt;WAITING_FOR_VM</title>
<path fill="none" stroke="black" d="M376.35,-273.02C386.93,-272.03 394,-270.02 394,-267 394,-265.11 391.24,-263.62 386.58,-262.52"/>
<polygon fill="black" stroke="black" points="386.76,-259.01 376.35,-260.98 385.71,-265.93 386.76,-259.01"/>
<text text-anchor="middle" x="430" y="-264.5" font-family="Times,serif" font-size="10.00">setup_session</text>
</g>
<!-- CONNECTING -->
<g id="node4" class="node">
<title>CONNECTING</title>
<path fill="none" stroke="black" d="M348.5,-202C348.5,-202 251.5,-202 251.5,-202 245.5,-202 239.5,-196 239.5,-190 239.5,-190 239.5,-178 239.5,-178 239.5,-172 245.5,-166 251.5,-166 251.5,-166 348.5,-166 348.5,-166 354.5,-166 360.5,-172 360.5,-178 360.5,-178 360.5,-190 360.5,-190 360.5,-196 354.5,-202 348.5,-202"/>
<text text-anchor="middle" x="300" y="-180.3" font-family="Times,serif" font-size="14.00">CONNECTING</text>
</g>
<!-- WAITING_FOR_VM&#45;&gt;CONNECTING -->
<g id="edge3" class="edge">
<title>WAITING_FOR_VM&#45;&gt;CONNECTING</title>
<path fill="none" stroke="black" d="M300,-248.82C300,-238.19 300,-224.31 300,-212.2"/>
<polygon fill="black" stroke="black" points="303.5,-212.15 300,-202.15 296.5,-212.15 303.5,-212.15"/>
<text text-anchor="middle" x="330.5" y="-223" font-family="Times,serif" font-size="10.00">VM_READY</text>
</g>
<!-- SESSION_ENDED -->
<g id="node3" class="node">
<title>SESSION_ENDED</title>
<path fill="none" stroke="black" stroke-width="2" d="M134,-36C134,-36 12,-36 12,-36 6,-36 0,-30 0,-24 0,-24 0,-12 0,-12 0,-6 6,0 12,0 12,0 134,0 134,0 140,0 146,-6 146,-12 146,-12 146,-24 146,-24 146,-30 140,-36 134,-36"/>
<text text-anchor="middle" x="73" y="-14.3" font-family="Times,serif" font-size="14.00">SESSION_ENDED</text>
</g>
<!-- SESSION_ENDED&#45;&gt;SESSION_ENDED -->
<g id="edge9" class="edge">
<title>SESSION_ENDED&#45;&gt;SESSION_ENDED</title>
<path fill="none" stroke="black" d="M146.19,-24.77C156.83,-23.69 164,-21.44 164,-18 164,-15.8 161.06,-14.08 156.15,-12.85"/>
<polygon fill="black" stroke="black" points="156.62,-9.38 146.19,-11.23 155.5,-16.29 156.62,-9.38"/>
<text text-anchor="middle" x="226" y="-15.5" font-family="Times,serif" font-size="10.00">ATTESTATION_RESULT</text>
</g>
<!-- CONNECTED -->
<g id="node5" class="node">
<title>CONNECTED</title>
<path fill="none" stroke="black" d="M345,-119C345,-119 255,-119 255,-119 249,-119 243,-113 243,-107 243,-107 243,-95 243,-95 243,-89 249,-83 255,-83 255,-83 345,-83 345,-83 351,-83 357,-89 357,-95 357,-95 357,-107 357,-107 357,-113 351,-119 345,-119"/>
<text text-anchor="middle" x="300" y="-97.3" font-family="Times,serif" font-size="14.00">CONNECTED</text>
</g>
<!-- CONNECTING&#45;&gt;CONNECTED -->
<g id="edge4" class="edge">
<title>CONNECTING&#45;&gt;CONNECTED</title>
<path fill="none" stroke="black" d="M300,-165.82C300,-155.19 300,-141.31 300,-129.2"/>
<polygon fill="black" stroke="black" points="303.5,-129.15 300,-119.15 296.5,-129.15 303.5,-129.15"/>
<text text-anchor="middle" x="311.5" y="-140" font-family="Times,serif" font-size="10.00">auto</text>
</g>
<!-- CONNECTED&#45;&gt;SESSION_ENDED -->
<g id="edge5" class="edge">
<title>CONNECTED&#45;&gt;SESSION_ENDED</title>
<path fill="none" stroke="black" d="M242.8,-88.38C217.89,-82.56 188.6,-74.68 163,-65 145.44,-58.36 126.83,-49.24 111.13,-40.86"/>
<polygon fill="black" stroke="black" points="112.7,-37.74 102.24,-36.05 109.36,-43.89 112.7,-37.74"/>
<text text-anchor="middle" x="227.5" y="-57" font-family="Times,serif" font-size="10.00">SESSION_TERMINATED</text>
</g>
<!-- CONNECTED&#45;&gt;CONNECTED -->
<g id="edge6" class="edge">
<title>CONNECTED&#45;&gt;CONNECTED</title>
<path fill="none" stroke="black" d="M357.23,-108.09C367.67,-107.19 375,-104.83 375,-101 375,-98.61 372.14,-96.79 367.44,-95.54"/>
<polygon fill="black" stroke="black" points="367.65,-92.03 357.23,-93.91 366.55,-98.94 367.65,-92.03"/>
<text text-anchor="middle" x="437" y="-98.5" font-family="Times,serif" font-size="10.00">ATTESTATION_RESULT</text>
</g>
<!-- REQUESTING_CANCEL -->
<g id="node6" class="node">
<title>REQUESTING_CANCEL</title>
<path fill="none" stroke="black" d="M482,-36C482,-36 318,-36 318,-36 312,-36 306,-30 306,-24 306,-24 306,-12 306,-12 306,-6 312,0 318,0 318,0 482,0 482,0 488,0 494,-6 494,-12 494,-12 494,-24 494,-24 494,-30 488,-36 482,-36"/>
<text text-anchor="middle" x="400" y="-14.3" font-family="Times,serif" font-size="14.00">REQUESTING_CANCEL</text>
</g>
<!-- CONNECTED&#45;&gt;REQUESTING_CANCEL -->
<g id="edge7" class="edge">
<title>CONNECTED&#45;&gt;REQUESTING_CANCEL</title>
<path fill="none" stroke="black" d="M295.95,-82.77C294.77,-73.43 295.1,-62.15 301,-54 304.34,-49.38 308.34,-45.37 312.79,-41.89"/>
<polygon fill="black" stroke="black" points="314.92,-44.68 321.23,-36.17 310.99,-38.88 314.92,-44.68"/>
<text text-anchor="middle" x="339.5" y="-57" font-family="Times,serif" font-size="10.00">request_cancel</text>
</g>
<!-- REQUESTING_CANCEL&#45;&gt;CONNECTED -->
<g id="edge8" class="edge">
<title>REQUESTING_CANCEL&#45;&gt;CONNECTED</title>
<path fill="none" stroke="black" d="M395.08,-36.06C391.61,-45.59 386.11,-57.09 378,-65 373,-69.88 367.21,-74.14 361.08,-77.86"/>
<polygon fill="black" stroke="black" points="358.98,-75.02 351.92,-82.91 362.36,-81.15 358.98,-75.02"/>
<text text-anchor="middle" x="397.5" y="-57" font-family="Times,serif" font-size="10.00">auto</text>
</g>
</g>
</svg>
