<?xml version="1.0" encoding="UTF-8" standalone="no"?>
<!DOCTYPE svg PUBLIC "-//W3C//DTD SVG 1.1//EN"
 "http://www.w3.org/Graphics/SVG/1.1/DTD/svg11.dtd">
<!-- Generated by graphviz version 2.43.0 (0)
 -->
<!-- Title: %3 Pages: 1 -->
<svg width="891pt" height="1074pt"
 viewBox="0.00 0.00 890.50 1074.40" xmlns="http://www.w3.org/2000/svg" xmlns:xlink="http://www.w3.org/1999/xlink">
<g id="graph0" class="graph" transform="scale(1 1) rotate(0) translate(4 1070.4)">
<title>%3</title>
<polygon fill="white" stroke="transparent" points="-4,4 -4,-1070.4 886.5,-1070.4 886.5,4 -4,4"/>
<!-- __start__ -->
<g id="node1" class="node">
<title>__start__</title>
<ellipse fill="black" stroke="black" cx="116.5" cy="-1059.2" rx="7.2" ry="7.2"/>
</g>
<!-- AWAITING_ALLOCATION -->
<g id="node2" class="node">
<title>AWAITING_ALLOCATION</title>
<path fill="none" stroke="black" d="M202,-1015C202,-1015 31,-1015 31,-1015 25,-1015 19,-1009 19,-1003 19,-1003 19,-991 19,-991 19,-985 25,-979 31,-979 31,-979 202,-979 202,-979 208,-979 214,-985 214,-991 214,-991 214,-1003 214,-1003 214,-1009 208,-1015 202,-1015"/>
<text text-anchor="middle" x="116.5" y="-993.3" font-family="Times,serif" font-size="14.00">AWAITING_ALLOCATION</text>
</g>
<!-- __start__&#45;&gt;AWAITING_ALLOCATION -->
<g id="edge1" class="edge">
<title>__start__&#45;&gt;AWAITING_ALLOCATION</title>
<path fill="none" stroke="black" d="M116.5,-1051.76C116.5,-1045.39 116.5,-1035.2 116.5,-1025.39"/>
<polygon fill="black" stroke="black" points="120,-1025.1 116.5,-1015.1 113,-1025.1 120,-1025.1"/>
</g>
<!-- AWAITING_ALLOCATION&#45;&gt;AWAITING_ALLOCATION -->
<g id="edge2" class="edge">
<title>AWAITING_ALLOCATION&#45;&gt;AWAITING_ALLOCATION</title>
<path fill="none" stroke="black" d="M214.24,-1002.68C225.03,-1001.6 232,-999.71 232,-997 232,-995.27 229.14,-993.87 224.25,-992.8"/>
<polygon fill="black" stroke="black" points="224.65,-989.32 214.24,-991.32 223.63,-996.25 224.65,-989.32"/>
<text text-anchor="middle" x="268" y="-994.5" font-family="Times,serif" font-size="10.00">setup_session</text>
</g>
<!-- VERIFYING_VM -->
<g id="node4" class="node">
<title>VERIFYING_VM</title>
<path fill="none" stroke="black" d="M170,-932C170,-932 63,-932 63,-932 57,-932 51,-926 51,-920 51,-920 51,-908 51,-908 51,-902 57,-896 63,-896 63,-896 170,-896 170,-896 176,-896 182,-902 182,-908 182,-908 182,-920 182,-920 182,-926 176,-932 170,-932"/>
<text text-anchor="middle" x="116.5" y="-910.3" font-family="Times,serif" font-size="14.00">VERIFYING_VM</text>
</g>
<!-- AWAITING_ALLOCATION&#45;&gt;VERIFYING_VM -->
<g id="edge3" class="edge">
<title>AWAITING_ALLOCATION&#45;&gt;VERIFYING_VM</title>
<path fill="none" stroke="black" d="M116.5,-978.82C116.5,-968.19 116.5,-954.31 116.5,-942.2"/>
<polygon fill="black" stroke="black" points="120,-942.15 116.5,-932.15 113,-942.15 120,-942.15"/>
<text text-anchor="middle" x="161.5" y="-953" font-family="Times,serif" font-size="10.00">VM_ALLOCATED</text>
</g>
<!-- DONE -->
<g id="node3" class="node">
<title>DONE</title>
<path fill="none" stroke="black" stroke-width="2" d="M618.5,-36C618.5,-36 580.5,-36 580.5,-36 574.5,-36 568.5,-30 568.5,-24 568.5,-24 568.5,-12 568.5,-12 568.5,-6 574.5,0 580.5,0 580.5,0 618.5,0 618.5,0 624.5,0 630.5,-6 630.5,-12 630.5,-12 630.5,-24 630.5,-24 630.5,-30 624.5,-36 618.5,-36"/>
<text text-anchor="middle" x="599.5" y="-14.3" font-family="Times,serif" font-size="14.00">DONE</text>
</g>
<!-- COLLECTING_VOTES -->
<g id="node5" class="node">
<title>COLLECTING_VOTES</title>
<path fill="none" stroke="black" d="M190.5,-849C190.5,-849 42.5,-849 42.5,-849 36.5,-849 30.5,-843 30.5,-837 30.5,-837 30.5,-825 30.5,-825 30.5,-819 36.5,-813 42.5,-813 42.5,-813 190.5,-813 190.5,-813 196.5,-813 202.5,-819 202.5,-825 202.5,-825 202.5,-837 202.5,-837 202.5,-843 196.5,-849 190.5,-849"/>
<text text-anchor="middle" x="116.5" y="-827.3" font-family="Times,serif" font-size="14.00">COLLECTING_VOTES</text>
</g>
<!-- VERIFYING_VM&#45;&gt;COLLECTING_VOTES -->
<g id="edge4" class="edge">
<title>VERIFYING_VM&#45;&gt;COLLECTING_VOTES</title>
<path fill="none" stroke="black" d="M116.5,-895.82C116.5,-885.19 116.5,-871.31 116.5,-859.2"/>
<polygon fill="black" stroke="black" points="120,-859.15 116.5,-849.15 113,-859.15 120,-859.15"/>
<text text-anchor="middle" x="128" y="-870" font-family="Times,serif" font-size="10.00">auto</text>
</g>
<!-- COLLECTING_VOTES&#45;&gt;COLLECTING_VOTES -->
<g id="edge5" class="edge">
<title>COLLECTING_VOTES&#45;&gt;COLLECTING_VOTES</title>
<path fill="none" stroke="black" d="M202.58,-837.53C213.39,-836.38 220.5,-834.2 220.5,-831 220.5,-828.95 217.58,-827.32 212.64,-826.11"/>
<polygon fill="black" stroke="black" points="213.01,-822.62 202.58,-824.47 211.88,-829.53 213.01,-822.62"/>
<text text-anchor="middle" x="297.5" y="-834" font-family="Times,serif" font-size="10.00">VM_CONNECTIVITY_VOTE</text>
<text text-anchor="middle" x="297.5" y="-823" font-family="Times,serif" font-size="10.00">[message.payload.witness !...]</text>
</g>
<!-- EVALUATING_CONNECTIVITY -->
<g id="node6" class="node">
<title>EVALUATING_CONNECTIVITY</title>
<path fill="none" stroke="black" d="M221,-755C221,-755 12,-755 12,-755 6,-755 0,-749 0,-743 0,-743 0,-731 0,-731 0,-725 6,-719 12,-719 12,-719 221,-719 221,-719 227,-719 233,-725 233,-731 233,-731 233,-743 233,-743 233,-749 227,-755 221,-755"/>
<text text-anchor="middle" x="116.5" y="-733.3" font-family="Times,serif" font-size="14.00">EVALUATING_CONNECTIVITY</text>
</g>
<!-- COLLECTING_VOTES&#45;&gt;EVALUATING_CONNECTIVITY -->
<g id="edge6" class="edge">
<title>COLLECTING_VOTES&#45;&gt;EVALUATING_CONNECTIVITY</title>
<path fill="none" stroke="black" d="M46.37,-812.97C38.57,-808.35 31.61,-802.47 26.5,-795 16.36,-780.18 26.86,-768.4 43.79,-759.49"/>
<polygon fill="black" stroke="black" points="45.59,-762.51 53.16,-755.09 42.62,-756.18 45.59,-762.51"/>
<text text-anchor="middle" x="106.5" y="-787" font-family="Times,serif" font-size="10.00">auto</text>
<text text-anchor="middle" x="106.5" y="-776" font-family="Times,serif" font-size="10.00">[LENGTH (connectivity_vote...]</text>
</g>
<!-- COLLECTING_VOTES&#45;&gt;EVALUATING_CONNECTIVITY -->
<g id="edge7" class="edge">
<title>COLLECTING_VOTES&#45;&gt;EVALUATING_CONNECTIVITY</title>
<path fill="none" stroke="black" d="M167.85,-812.95C175.27,-808.28 181.93,-802.4 186.5,-795 191.64,-786.68 191.64,-781.32 186.5,-773 183.71,-768.49 180.15,-764.55 176.12,-761.09"/>
<polygon fill="black" stroke="black" points="177.99,-758.13 167.85,-755.05 173.85,-763.78 177.99,-758.13"/>
<text text-anchor="middle" x="302" y="-781.5" font-family="Times,serif" font-size="10.00">timeout(CONNECTIVITY_VOTE_TIMEOUT)</text>
</g>
<!-- MONITORING -->
<g id="node7" class="node">
<title>MONITORING</title>
<path fill="none" stroke="black" d="M475,-661C475,-661 380,-661 380,-661 374,-661 368,-655 368,-649 368,-649 368,-637 368,-637 368,-631 374,-625 380,-625 380,-625 475,-625 475,-625 481,-625 487,-631 487,-637 487,-637 487,-649 487,-649 487,-655 481,-661 475,-661"/>
<text text-anchor="middle" x="427.5" y="-639.3" font-family="Times,serif" font-size="14.00">MONITORING</text>
</g>
<!-- EVALUATING_CONNECTIVITY&#45;&gt;MONITORING -->
<g id="edge8" class="edge">
<title>EVALUATING_CONNECTIVITY&#45;&gt;MONITORING</title>
<path fill="none" stroke="black" d="M174.27,-718.91C226.88,-703.35 304.6,-680.36 360.04,-663.96"/>
<polygon fill="black" stroke="black" points="361.18,-667.27 369.78,-661.08 359.2,-660.56 361.18,-667.27"/>
<text text-anchor="middle" x="389.5" y="-693" font-family="Times,serif" font-size="10.00">auto</text>
<text text-anchor="middle" x="389.5" y="-682" font-family="Times,serif" font-size="10.00">[LENGTH (connectivity_vote...]</text>
</g>
<!-- VOTING_ABORT -->
<g id="node8" class="node">
<title>VOTING_ABORT</title>
<path fill="none" stroke="black" d="M386,-473C386,-473 277,-473 277,-473 271,-473 265,-467 265,-461 265,-461 265,-449 265,-449 265,-443 271,-437 277,-437 277,-437 386,-437 386,-437 392,-437 398,-443 398,-449 398,-449 398,-461 398,-461 398,-467 392,-473 386,-473"/>
<text text-anchor="middle" x="331.5" y="-451.3" font-family="Times,serif" font-size="14.00">VOTING_ABORT</text>
</g>
<!-- EVALUATING_CONNECTIVITY&#45;&gt;VOTING_ABORT -->
<g id="edge9" class="edge">
<title>EVALUATING_CONNECTIVITY&#45;&gt;VOTING_ABORT</title>
<path fill="none" stroke="black" d="M111.51,-718.76C104.01,-689.19 93.12,-627.83 117.5,-585 148.75,-530.1 213.69,-495.92 263.88,-476.65"/>
<polygon fill="black" stroke="black" points="265.24,-479.88 273.39,-473.11 262.79,-473.32 265.24,-479.88"/>
<text text-anchor="middle" x="197.5" y="-599" font-family="Times,serif" font-size="10.00">auto</text>
<text text-anchor="middle" x="197.5" y="-588" font-family="Times,serif" font-size="10.00">[LENGTH (connectivity_vote...]</text>
</g>
<!-- ATTESTING -->
<g id="node9" class="node">
<title>ATTESTING</title>
<path fill="none" stroke="black" d="M638.5,-296C638.5,-296 560.5,-296 560.5,-296 554.5,-296 548.5,-290 548.5,-284 548.5,-284 548.5,-272 548.5,-272 548.5,-266 554.5,-260 560.5,-260 560.5,-260 638.5,-260 638.5,-260 644.5,-260 650.5,-266 650.5,-272 650.5,-272 650.5,-284 650.5,-284 650.5,-290 644.5,-296 638.5,-296"/>
<text text-anchor="middle" x="599.5" y="-274.3" font-family="Times,serif" font-size="14.00">ATTESTING</text>
</g>
<!-- MONITORING&#45;&gt;ATTESTING -->
<g id="edge10" class="edge">
<title>MONITORING&#45;&gt;ATTESTING</title>
<path fill="none" stroke="black" d="M487.04,-639.15C590.02,-632.58 790.5,-611.84 790.5,-550 790.5,-550 790.5,-550 790.5,-371 790.5,-344.3 791.49,-331.71 771.5,-314 755.19,-299.55 703.41,-290.32 660.89,-284.99"/>
<polygon fill="black" stroke="black" points="661.21,-281.5 650.86,-283.78 660.37,-288.45 661.21,-281.5"/>
<text text-anchor="middle" x="836.5" y="-452.5" font-family="Times,serif" font-size="10.00">VM_CANCELLED</text>
</g>
<!-- HANDLING_MISUSE -->
<g id="node10" class="node">
<title>HANDLING_MISUSE</title>
<path fill="none" stroke="black" d="M403,-567C403,-567 260,-567 260,-567 254,-567 248,-561 248,-555 248,-555 248,-543 248,-543 248,-537 254,-531 260,-531 260,-531 403,-531 403,-531 409,-531 415,-537 415,-543 415,-543 415,-555 415,-555 415,-561 409,-567 403,-567"/>
<text text-anchor="middle" x="331.5" y="-545.3" font-family="Times,serif" font-size="14.00">HANDLING_MISUSE</text>
</g>
<!-- MONITORING&#45;&gt;HANDLING_MISUSE -->
<g id="edge11" class="edge">
<title>MONITORING&#45;&gt;HANDLING_MISUSE</title>
<path fill="none" stroke="black" d="M367.84,-634.85C333.47,-629.36 295.03,-620.42 284.5,-607 278.46,-599.31 280.11,-593.74 284.5,-585 286.45,-581.11 289.06,-577.55 292.06,-574.31"/>
<polygon fill="black" stroke="black" points="294.64,-576.68 299.61,-567.33 289.89,-571.54 294.64,-576.68"/>
<text text-anchor="middle" x="345" y="-593.5" font-family="Times,serif" font-size="10.00">MISUSE_ACCUSATION</text>
</g>
<!-- COLLECTING_ABORT_VOTES -->
<g id="node11" class="node">
<title>COLLECTING_ABORT_VOTES</title>
<path fill="none" stroke="black" d="M551.5,-390C551.5,-390 345.5,-390 345.5,-390 339.5,-390 333.5,-384 333.5,-378 333.5,-378 333.5,-366 333.5,-366 333.5,-360 339.5,-354 345.5,-354 345.5,-354 551.5,-354 551.5,-354 557.5,-354 563.5,-360 563.5,-366 563.5,-366 563.5,-378 563.5,-378 563.5,-384 557.5,-390 551.5,-390"/>
<text text-anchor="middle" x="448.5" y="-368.3" font-family="Times,serif" font-size="14.00">COLLECTING_ABORT_VOTES</text>
</g>
<!-- VOTING_ABORT&#45;&gt;COLLECTING_ABORT_VOTES -->
<g id="edge14" class="edge">
<title>VOTING_ABORT&#45;&gt;COLLECTING_ABORT_VOTES</title>
<path fill="none" stroke="black" d="M356.31,-436.82C373.53,-424.9 396.66,-408.89 415.44,-395.89"/>
<polygon fill="black" stroke="black" points="417.49,-398.72 423.72,-390.15 413.51,-392.97 417.49,-398.72"/>
<text text-anchor="middle" x="408" y="-411" font-family="Times,serif" font-size="10.00">auto</text>
</g>
<!-- COLLECTING_ATTESTATION_SIGS -->
<g id="node12" class="node">
<title>COLLECTING_ATTESTATION_SIGS</title>
<path fill="none" stroke="black" d="M721,-213C721,-213 478,-213 478,-213 472,-213 466,-207 466,-201 466,-201 466,-189 466,-189 466,-183 472,-177 478,-177 478,-177 721,-177 721,-177 727,-177 733,-183 733,-189 733,-189 733,-201 733,-201 733,-207 727,-213 721,-213"/>
<text text-anchor="middle" x="599.5" y="-191.3" font-family="Times,serif" font-size="14.00">COLLECTING_ATTESTATION_SIGS</text>
</g>
<!-- ATTESTING&#45;&gt;COLLECTING_ATTESTATION_SIGS -->
<g id="edge19" class="edge">
<title>ATTESTING&#45;&gt;COLLECTING_ATTESTATION_SIGS</title>
<path fill="none" stroke="black" d="M599.5,-259.82C599.5,-249.19 599.5,-235.31 599.5,-223.2"/>
<polygon fill="black" stroke="black" points="603,-223.15 599.5,-213.15 596,-223.15 603,-223.15"/>
<text text-anchor="middle" x="611" y="-234" font-family="Times,serif" font-size="10.00">auto</text>
</g>
<!-- HANDLING_MISUSE&#45;&gt;MONITORING -->
<g id="edge13" class="edge">
<title>HANDLING_MISUSE&#45;&gt;MONITORING</title>
<path fill="none" stroke="black" d="M381.2,-567.04C390.13,-571.79 398.73,-577.71 405.5,-585 413.24,-593.33 418.36,-604.69 421.69,-615.07"/>
<polygon fill="black" stroke="black" points="418.4,-616.29 424.46,-624.98 425.14,-614.41 418.4,-616.29"/>
<text text-anchor="middle" x="496" y="-599" font-family="Times,serif" font-size="10.00">auto</text>
<text text-anchor="middle" x="496" y="-588" font-family="Times,serif" font-size="10.00">[LOAD (misuse_accusation)....]</text>
</g>
<!-- HANDLING_MISUSE&#45;&gt;VOTING_ABORT -->
<g id="edge12" class="edge">
<title>HANDLING_MISUSE&#45;&gt;VOTING_ABORT</title>
<path fill="none" stroke="black" d="M331.5,-530.7C331.5,-517.46 331.5,-498.95 331.5,-483.66"/>
<polygon fill="black" stroke="black" points="335,-483.23 331.5,-473.23 328,-483.23 335,-483.23"/>
<text text-anchor="middle" x="410" y="-505" font-family="Times,serif" font-size="10.00">auto</text>
<text text-anchor="middle" x="410" y="-494" font-family="Times,serif" font-size="10.00">[LOAD (misuse_accusation)....]</text>
</g>
<!-- COLLECTING_ABORT_VOTES&#45;&gt;MONITORING -->
<g id="edge17" class="edge">
<title>COLLECTING_ABORT_VOTES&#45;&gt;MONITORING</title>
<path fill="none" stroke="black" d="M471.21,-390.03C522.2,-430.3 636.91,-533.51 578.5,-607 568.02,-620.18 531.7,-628.84 497.31,-634.25"/>
<polygon fill="black" stroke="black" points="496.58,-630.82 487.21,-635.75 497.62,-637.74 496.58,-630.82"/>
<text text-anchor="middle" x="669.5" y="-505" font-family="Times,serif" font-size="10.00">timeout(ABORT_VOTE_TIMEOUT)</text>
<text text-anchor="middle" x="669.5" y="-494" font-family="Times,serif" font-size="10.00">[LENGTH (abort_votes) / (L...]</text>
</g>
<!-- COLLECTING_ABORT_VOTES&#45;&gt;ATTESTING -->
<g id="edge16" class="edge">
<title>COLLECTING_ABORT_VOTES&#45;&gt;ATTESTING</title>
<path fill="none" stroke="black" d="M432.05,-353.96C422.4,-341.87 413.83,-325.78 423.5,-314 437.97,-296.37 493.47,-287.46 538.32,-283.06"/>
<polygon fill="black" stroke="black" points="538.66,-286.54 548.3,-282.13 538.02,-279.57 538.66,-286.54"/>
<text text-anchor="middle" x="500.5" y="-328" font-family="Times,serif" font-size="10.00">auto</text>
<text text-anchor="middle" x="500.5" y="-317" font-family="Times,serif" font-size="10.00">[LENGTH (abort_votes) / (L...]</text>
</g>
<!-- COLLECTING_ABORT_VOTES&#45;&gt;ATTESTING -->
<g id="edge18" class="edge">
<title>COLLECTING_ABORT_VOTES&#45;&gt;ATTESTING</title>
<path fill="none" stroke="black" d="M549.53,-353.86C559.72,-349.23 569.31,-343.38 577.5,-336 586.16,-328.2 591.44,-316.59 594.64,-305.88"/>
<polygon fill="black" stroke="black" points="598.07,-306.6 597.12,-296.05 591.28,-304.89 598.07,-306.6"/>
<text text-anchor="middle" x="679.5" y="-328" font-family="Times,serif" font-size="10.00">timeout(ABORT_VOTE_TIMEOUT)</text>
<text text-anchor="middle" x="679.5" y="-317" font-family="Times,serif" font-size="10.00">[LENGTH (abort_votes) / (L...]</text>
</g>
<!-- COLLECTING_ABORT_VOTES&#45;&gt;COLLECTING_ABORT_VOTES -->
<g id="edge15" class="edge">
<title>COLLECTING_ABORT_VOTES&#45;&gt;COLLECTING_ABORT_VOTES</title>
<path fill="none" stroke="black" d="M563.88,-378.01C574.68,-376.78 581.5,-374.77 581.5,-372 581.5,-370.22 578.7,-368.76 573.85,-367.62"/>
<polygon fill="black" stroke="black" points="574.31,-364.15 563.88,-365.99 573.18,-371.05 574.31,-364.15"/>
<text text-anchor="middle" x="658.5" y="-375" font-family="Times,serif" font-size="10.00">ABORT_VOTE</text>
<text text-anchor="middle" x="658.5" y="-364" font-family="Times,serif" font-size="10.00">[message.payload.witness !...]</text>
</g>
<!-- COLLECTING_ATTESTATION_SIGS&#45;&gt;COLLECTING_ATTESTATION_SIGS -->
<g id="edge20" class="edge">
<title>COLLECTING_ATTESTATION_SIGS&#45;&gt;COLLECTING_ATTESTATION_SIGS</title>
<path fill="none" stroke="black" d="M733.46,-200.74C744.29,-199.49 751,-197.58 751,-195 751,-193.35 748.24,-191.97 743.42,-190.86"/>
<polygon fill="black" stroke="black" points="743.89,-187.39 733.46,-189.26 742.77,-194.3 743.89,-187.39"/>
<text text-anchor="middle" x="810.5" y="-192.5" font-family="Times,serif" font-size="10.00">ATTESTATION_SHARE</text>
</g>
<!-- PROPAGATING_ATTESTATION -->
<g id="node13" class="node">
<title>PROPAGATING_ATTESTATION</title>
<path fill="none" stroke="black" d="M704,-119C704,-119 495,-119 495,-119 489,-119 483,-113 483,-107 483,-107 483,-95 483,-95 483,-89 489,-83 495,-83 495,-83 704,-83 704,-83 710,-83 716,-89 716,-95 716,-95 716,-107 716,-107 716,-113 710,-119 704,-119"/>
<text text-anchor="middle" x="599.5" y="-97.3" font-family="Times,serif" font-size="14.00">PROPAGATING_ATTESTATION</text>
</g>
<!-- COLLECTING_ATTESTATION_SIGS&#45;&gt;PROPAGATING_ATTESTATION -->
<g id="edge21" class="edge">
<title>COLLECTING_ATTESTATION_SIGS&#45;&gt;PROPAGATING_ATTESTATION</title>
<path fill="none" stroke="black" d="M599.5,-176.7C599.5,-163.46 599.5,-144.95 599.5,-129.66"/>
<polygon fill="black" stroke="black" points="603,-129.23 599.5,-119.23 596,-129.23 603,-129.23"/>
<text text-anchor="middle" x="678.5" y="-151" font-family="Times,serif" font-size="10.00">auto</text>
<text text-anchor="middle" x="678.5" y="-140" font-family="Times,serif" font-size="10.00">[LENGTH (attestation_signa...]</text>
</g>
<!-- PROPAGATING_ATTESTATION&#45;&gt;DONE -->
<g id="edge22" class="edge">
<title>PROPAGATING_ATTESTATION&#45;&gt;DONE</title>
<path fill="none" stroke="black" d="M599.5,-82.82C599.5,-72.19 599.5,-58.31 599.5,-46.2"/>
<polygon fill="black" stroke="black" points="603,-46.15 599.5,-36.15 596,-46.15 603,-46.15"/>
<text text-anchor="middle" x="611" y="-57" font-family="Times,serif" font-size="10.00">auto</text>
</g>
</g>
</svg>
