<?xml version="1.0" encoding="UTF-8" standalone="no"?>
<!DOCTYPE svg PUBLIC "-//W3C//DTD SVG 1.1//EN"
 "http://www.w3.org/Graphics/SVG/1.1/DTD/svg11.dtd">
<!-- Generated by graphviz version 2.43.0 (0)
 -->
<!-- Title: %3 Pages: 1 -->
<svg width="844pt" height="781pt"
 viewBox="0.00 0.00 843.91 781.40" xmlns="http://www.w3.org/2000/svg" xmlns:xlink="http://www.w3.org/1999/xlink">
<g id="graph0" class="graph" transform="scale(1 1) rotate(0) translate(4 777.4)">
<title>%3</title>
<polygon fill="white" stroke="transparent" points="-4,4 -4,-777.4 839.91,-777.4 839.91,4 -4,4"/>
<!-- __start__ -->
<g id="node1" class="node">
<title>__start__</title>
<ellipse fill="black" stroke="black" cx="201.91" cy="-766.2" rx="7.2" ry="7.2"/>
</g>
<!-- WAITING_FOR_LOCK -->
<g id="node2" class="node">
<title>WAITING_FOR_LOCK</title>
<path fill="none" stroke="black" d="M274.41,-722C274.41,-722 129.41,-722 129.41,-722 123.41,-722 117.41,-716 117.41,-710 117.41,-710 117.41,-698 117.41,-698 117.41,-692 123.41,-686 129.41,-686 129.41,-686 274.41,-686 274.41,-686 280.41,-686 286.41,-692 286.41,-698 286.41,-698 286.41,-710 286.41,-710 286.41,-716 280.41,-722 274.41,-722"/>
<text text-anchor="middle" x="201.91" y="-700.3" font-family="Times,serif" font-size="14.00">WAITING_FOR_LOCK</text>
</g>
<!-- __start__&#45;&gt;WAITING_FOR_LOCK -->
<g id="edge1" class="edge">
<title>__start__&#45;&gt;WAITING_FOR_LOCK</title>
<path fill="none" stroke="black" d="M201.91,-758.76C201.91,-752.39 201.91,-742.2 201.91,-732.39"/>
<polygon fill="black" stroke="black" points="205.41,-732.1 201.91,-722.1 198.41,-732.1 205.41,-732.1"/>
</g>
<!-- VM_PROVISIONING -->
<g id="node4" class="node">
<title>VM_PROVISIONING</title>
<path fill="none" stroke="black" d="M270.41,-639C270.41,-639 133.41,-639 133.41,-639 127.41,-639 121.41,-633 121.41,-627 121.41,-627 121.41,-615 121.41,-615 121.41,-609 127.41,-603 133.41,-603 133.41,-603 270.41,-603 270.41,-603 276.41,-603 282.41,-609 282.41,-615 282.41,-615 282.41,-627 282.41,-627 282.41,-633 276.41,-639 270.41,-639"/>
<text text-anchor="middle" x="201.91" y="-617.3" font-family="Times,serif" font-size="14.00">VM_PROVISIONING</text>
</g>
<!-- WAITING_FOR_LOCK&#45;&gt;VM_PROVISIONING -->
<g id="edge2" class="edge">
<title>WAITING_FOR_LOCK&#45;&gt;VM_PROVISIONING</title>
<path fill="none" stroke="black" d="M201.91,-685.82C201.91,-675.19 201.91,-661.31 201.91,-649.2"/>
<polygon fill="black" stroke="black" points="205.41,-649.15 201.91,-639.15 198.41,-649.15 205.41,-649.15"/>
<text text-anchor="middle" x="235.41" y="-660" font-family="Times,serif" font-size="10.00">start_session</text>
</g>
<!-- SESSION_ABORTED -->
<g id="node3" class="node">
<title>SESSION_ABORTED</title>
<path fill="none" stroke="black" stroke-width="2" d="M160.91,-556C160.91,-556 20.91,-556 20.91,-556 14.91,-556 8.91,-550 8.91,-544 8.91,-544 8.91,-532 8.91,-532 8.91,-526 14.91,-520 20.91,-520 20.91,-520 160.91,-520 160.91,-520 166.91,-520 172.91,-526 172.91,-532 172.91,-532 172.91,-544 172.91,-544 172.91,-550 166.91,-556 160.91,-556"/>
<text text-anchor="middle" x="90.91" y="-534.3" font-family="Times,serif" font-size="14.00">SESSION_ABORTED</text>
</g>
<!-- VM_PROVISIONING&#45;&gt;SESSION_ABORTED -->
<g id="edge3" class="edge">
<title>VM_PROVISIONING&#45;&gt;SESSION_ABORTED</title>
<path fill="none" stroke="black" d="M121.23,-607.43C109.8,-602.25 99.41,-595.03 91.91,-585 87.95,-579.71 86.44,-573.04 86.22,-566.43"/>
<polygon fill="black" stroke="black" points="89.72,-566.47 86.75,-556.3 82.73,-566.11 89.72,-566.47"/>
<text text-anchor="middle" x="191.41" y="-577" font-family="Times,serif" font-size="10.00">timeout(VM_ALLOCATION_TIMEOUT)</text>
</g>
<!-- NOTIFYING_CABAL -->
<g id="node5" class="node">
<title>NOTIFYING_CABAL</title>
<path fill="none" stroke="black" d="M379.91,-556C379.91,-556 245.91,-556 245.91,-556 239.91,-556 233.91,-550 233.91,-544 233.91,-544 233.91,-532 233.91,-532 233.91,-526 239.91,-520 245.91,-520 245.91,-520 379.91,-520 379.91,-520 385.91,-520 391.91,-526 391.91,-532 391.91,-532 391.91,-544 391.91,-544 391.91,-550 385.91,-556 379.91,-556"/>
<text text-anchor="middle" x="312.91" y="-534.3" font-family="Times,serif" font-size="14.00">NOTIFYING_CABAL</text>
</g>
<!-- VM_PROVISIONING&#45;&gt;NOTIFYING_CABAL -->
<g id="edge4" class="edge">
<title>VM_PROVISIONING&#45;&gt;NOTIFYING_CABAL</title>
<path fill="none" stroke="black" d="M263.42,-602.9C273.38,-598.23 283.01,-592.35 290.91,-585 296.61,-579.69 300.99,-572.6 304.28,-565.57"/>
<polygon fill="black" stroke="black" points="307.57,-566.79 308.13,-556.21 301.09,-564.13 307.57,-566.79"/>
<text text-anchor="middle" x="329.41" y="-577" font-family="Times,serif" font-size="10.00">allocate_vm</text>
</g>
<!-- WAITING_FOR_VERIFICATION -->
<g id="node6" class="node">
<title>WAITING_FOR_VERIFICATION</title>
<path fill="none" stroke="black" d="M418.91,-473C418.91,-473 206.91,-473 206.91,-473 200.91,-473 194.91,-467 194.91,-461 194.91,-461 194.91,-449 194.91,-449 194.91,-443 200.91,-437 206.91,-437 206.91,-437 418.91,-437 418.91,-437 424.91,-437 430.91,-443 430.91,-449 430.91,-449 430.91,-461 430.91,-461 430.91,-467 424.91,-473 418.91,-473"/>
<text text-anchor="middle" x="312.91" y="-451.3" font-family="Times,serif" font-size="14.00">WAITING_FOR_VERIFICATION</text>
</g>
<!-- NOTIFYING_CABAL&#45;&gt;WAITING_FOR_VERIFICATION -->
<g id="edge5" class="edge">
<title>NOTIFYING_CABAL&#45;&gt;WAITING_FOR_VERIFICATION</title>
<path fill="none" stroke="black" d="M312.91,-519.82C312.91,-509.19 312.91,-495.31 312.91,-483.2"/>
<polygon fill="black" stroke="black" points="316.41,-483.15 312.91,-473.15 309.41,-483.15 316.41,-483.15"/>
<text text-anchor="middle" x="324.41" y="-494" font-family="Times,serif" font-size="10.00">auto</text>
</g>
<!-- WAITING_FOR_VERIFICATION&#45;&gt;WAITING_FOR_VERIFICATION -->
<g id="edge6" class="edge">
<title>WAITING_FOR_VERIFICATION&#45;&gt;WAITING_FOR_VERIFICATION</title>
<path fill="none" stroke="black" d="M431.35,-460.96C442.13,-459.72 448.91,-457.73 448.91,-455 448.91,-453.25 446.12,-451.8 441.29,-450.67"/>
<polygon fill="black" stroke="black" points="441.78,-447.2 431.35,-449.04 440.65,-454.11 441.78,-447.2"/>
<text text-anchor="middle" x="519.91" y="-452.5" font-family="Times,serif" font-size="10.00">VM_CONNECTIVITY_VOTE</text>
</g>
<!-- VM_RUNNING -->
<g id="node7" class="node">
<title>VM_RUNNING</title>
<path fill="none" stroke="black" d="M211.91,-379C211.91,-379 113.91,-379 113.91,-379 107.91,-379 101.91,-373 101.91,-367 101.91,-367 101.91,-355 101.91,-355 101.91,-349 107.91,-343 113.91,-343 113.91,-343 211.91,-343 211.91,-343 217.91,-343 223.91,-349 223.91,-355 223.91,-355 223.91,-367 223.91,-367 223.91,-373 217.91,-379 211.91,-379"/>
<text text-anchor="middle" x="162.91" y="-357.3" font-family="Times,serif" font-size="14.00">VM_RUNNING</text>
</g>
<!-- WAITING_FOR_VERIFICATION&#45;&gt;VM_RUNNING -->
<g id="edge7" class="edge">
<title>WAITING_FOR_VERIFICATION&#45;&gt;VM_RUNNING</title>
<path fill="none" stroke="black" d="M194.5,-447.87C114.27,-442.48 20.59,-433.22 7.91,-419 -20.91,-386.68 38.21,-372.66 91.54,-366.59"/>
<polygon fill="black" stroke="black" points="92.18,-370.04 101.76,-365.51 91.45,-363.08 92.18,-370.04"/>
<text text-anchor="middle" x="87.91" y="-411" font-family="Times,serif" font-size="10.00">auto</text>
<text text-anchor="middle" x="87.91" y="-400" font-family="Times,serif" font-size="10.00">[LENGTH (connectivity_vote...]</text>
</g>
<!-- WAITING_FOR_VERIFICATION&#45;&gt;VM_RUNNING -->
<g id="edge9" class="edge">
<title>WAITING_FOR_VERIFICATION&#45;&gt;VM_RUNNING</title>
<path fill="none" stroke="black" d="M221.01,-436.89C210.14,-432.28 199.78,-426.42 190.91,-419 181.52,-411.15 175.01,-399.38 170.64,-388.58"/>
<polygon fill="black" stroke="black" points="173.9,-387.29 167.22,-379.07 167.31,-389.66 173.9,-387.29"/>
<text text-anchor="middle" x="306.91" y="-411" font-family="Times,serif" font-size="10.00">timeout(CONNECTIVITY_CHECK_TIMEOUT)</text>
<text text-anchor="middle" x="306.91" y="-400" font-family="Times,serif" font-size="10.00">[LENGTH (connectivity_vote...]</text>
</g>
<!-- SENDING_CANCELLATION -->
<g id="node8" class="node">
<title>SENDING_CANCELLATION</title>
<path fill="none" stroke="black" d="M531.41,-202C531.41,-202 342.41,-202 342.41,-202 336.41,-202 330.41,-196 330.41,-190 330.41,-190 330.41,-178 330.41,-178 330.41,-172 336.41,-166 342.41,-166 342.41,-166 531.41,-166 531.41,-166 537.41,-166 543.41,-172 543.41,-178 543.41,-178 543.41,-190 543.41,-190 543.41,-196 537.41,-202 531.41,-202"/>
<text text-anchor="middle" x="436.91" y="-180.3" font-family="Times,serif" font-size="14.00">SENDING_CANCELLATION</text>
</g>
<!-- WAITING_FOR_VERIFICATION&#45;&gt;SENDING_CANCELLATION -->
<g id="edge8" class="edge">
<title>WAITING_FOR_VERIFICATION&#45;&gt;SENDING_CANCELLATION</title>
<path fill="none" stroke="black" d="M401.58,-436.97C409.75,-432.32 417.12,-426.43 422.91,-419 435.32,-403.05 436.9,-270.89 436.98,-212.53"/>
<polygon fill="black" stroke="black" points="440.48,-212.21 436.98,-202.21 433.48,-212.21 440.48,-212.21"/>
<text text-anchor="middle" x="514.91" y="-317" font-family="Times,serif" font-size="10.00">auto</text>
<text text-anchor="middle" x="514.91" y="-306" font-family="Times,serif" font-size="10.00">[LENGTH (connectivity_vote...]</text>
</g>
<!-- WAITING_FOR_VERIFICATION&#45;&gt;SENDING_CANCELLATION -->
<g id="edge10" class="edge">
<title>WAITING_FOR_VERIFICATION&#45;&gt;SENDING_CANCELLATION</title>
<path fill="none" stroke="black" d="M421.61,-436.95C486.1,-420.4 562.06,-388.03 597.91,-325 627.91,-272.23 553.53,-229.65 496.1,-205.84"/>
<polygon fill="black" stroke="black" points="497.28,-202.54 486.69,-202.04 494.65,-209.03 497.28,-202.54"/>
<text text-anchor="middle" x="719.91" y="-317" font-family="Times,serif" font-size="10.00">timeout(CONNECTIVITY_CHECK_TIMEOUT)</text>
<text text-anchor="middle" x="719.91" y="-306" font-family="Times,serif" font-size="10.00">[LENGTH (connectivity_vote...]</text>
</g>
<!-- HANDLING_CANCEL -->
<g id="node9" class="node">
<title>HANDLING_CANCEL</title>
<path fill="none" stroke="black" d="M396.91,-285C396.91,-285 252.91,-285 252.91,-285 246.91,-285 240.91,-279 240.91,-273 240.91,-273 240.91,-261 240.91,-261 240.91,-255 246.91,-249 252.91,-249 252.91,-249 396.91,-249 396.91,-249 402.91,-249 408.91,-255 408.91,-261 408.91,-261 408.91,-273 408.91,-273 408.91,-279 402.91,-285 396.91,-285"/>
<text text-anchor="middle" x="324.91" y="-263.3" font-family="Times,serif" font-size="14.00">HANDLING_CANCEL</text>
</g>
<!-- VM_RUNNING&#45;&gt;HANDLING_CANCEL -->
<g id="edge11" class="edge">
<title>VM_RUNNING&#45;&gt;HANDLING_CANCEL</title>
<path fill="none" stroke="black" d="M149.35,-342.95C141.35,-330.71 134.48,-314.42 143.91,-303 155.55,-288.89 192.87,-280.41 230.62,-275.33"/>
<polygon fill="black" stroke="black" points="231.25,-278.78 240.73,-274.05 230.37,-271.84 231.25,-278.78"/>
<text text-anchor="middle" x="226.91" y="-317" font-family="Times,serif" font-size="10.00">CANCEL_REQUEST</text>
<text text-anchor="middle" x="226.91" y="-306" font-family="Times,serif" font-size="10.00">[message.sender == LOAD (c...]</text>
</g>
<!-- VM_RUNNING&#45;&gt;HANDLING_CANCEL -->
<g id="edge12" class="edge">
<title>VM_RUNNING&#45;&gt;HANDLING_CANCEL</title>
<path fill="none" stroke="black" d="M224.24,-351.84C258.82,-346.03 297.52,-337.1 309.91,-325 317.87,-317.22 321.77,-305.77 323.63,-295.16"/>
<polygon fill="black" stroke="black" points="327.13,-295.36 324.88,-285.01 320.18,-294.51 327.13,-295.36"/>
<text text-anchor="middle" x="358.91" y="-311.5" font-family="Times,serif" font-size="10.00">cancel_session</text>
</g>
<!-- WAITING_FOR_ATTESTATION -->
<g id="node10" class="node">
<title>WAITING_FOR_ATTESTATION</title>
<path fill="none" stroke="black" d="M539.91,-119C539.91,-119 333.91,-119 333.91,-119 327.91,-119 321.91,-113 321.91,-107 321.91,-107 321.91,-95 321.91,-95 321.91,-89 327.91,-83 333.91,-83 333.91,-83 539.91,-83 539.91,-83 545.91,-83 551.91,-89 551.91,-95 551.91,-95 551.91,-107 551.91,-107 551.91,-113 545.91,-119 539.91,-119"/>
<text text-anchor="middle" x="436.91" y="-97.3" font-family="Times,serif" font-size="14.00">WAITING_FOR_ATTESTATION</text>
</g>
<!-- SENDING_CANCELLATION&#45;&gt;WAITING_FOR_ATTESTATION -->
<g id="edge14" class="edge">
<title>SENDING_CANCELLATION&#45;&gt;WAITING_FOR_ATTESTATION</title>
<path fill="none" stroke="black" d="M436.91,-165.82C436.91,-155.19 436.91,-141.31 436.91,-129.2"/>
<polygon fill="black" stroke="black" points="440.41,-129.15 436.91,-119.15 433.41,-129.15 440.41,-129.15"/>
<text text-anchor="middle" x="448.41" y="-140" font-family="Times,serif" font-size="10.00">auto</text>
</g>
<!-- HANDLING_CANCEL&#45;&gt;SENDING_CANCELLATION -->
<g id="edge13" class="edge">
<title>HANDLING_CANCEL&#45;&gt;SENDING_CANCELLATION</title>
<path fill="none" stroke="black" d="M348.66,-248.82C364.99,-237.01 386.88,-221.18 404.77,-208.24"/>
<polygon fill="black" stroke="black" points="407.14,-210.85 413.19,-202.15 403.03,-205.18 407.14,-210.85"/>
<text text-anchor="middle" x="398.41" y="-223" font-family="Times,serif" font-size="10.00">auto</text>
</g>
<!-- SESSION_COMPLETE -->
<g id="node11" class="node">
<title>SESSION_COMPLETE</title>
<path fill="none" stroke="black" d="M512.91,-36C512.91,-36 360.91,-36 360.91,-36 354.91,-36 348.91,-30 348.91,-24 348.91,-24 348.91,-12 348.91,-12 348.91,-6 354.91,0 360.91,0 360.91,0 512.91,0 512.91,0 518.91,0 524.91,-6 524.91,-12 524.91,-12 524.91,-24 524.91,-24 524.91,-30 518.91,-36 512.91,-36"/>
<text text-anchor="middle" x="436.91" y="-14.3" font-family="Times,serif" font-size="14.00">SESSION_COMPLETE</text>
</g>
<!-- WAITING_FOR_ATTESTATION&#45;&gt;SESSION_COMPLETE -->
<g id="edge15" class="edge">
<title>WAITING_FOR_ATTESTATION&#45;&gt;SESSION_COMPLETE</title>
<path fill="none" stroke="black" d="M436.91,-82.82C436.91,-72.19 436.91,-58.31 436.91,-46.2"/>
<polygon fill="black" stroke="black" points="440.41,-46.15 436.91,-36.15 433.41,-46.15 440.41,-46.15"/>
<text text-anchor="middle" x="498.91" y="-57" font-family="Times,serif" font-size="10.00">ATTESTATION_RESULT</text>
</g>
</g>
</svg>
